<svg xmlns="http://www.w3.org/2000/svg" width="21.303" height="21.655" viewBox="0 0 21.303 21.655">
  <g id="Group_8726" data-name="Group 8726" transform="translate(0 0)">
    <g id="Group_8721" data-name="Group 8721">
      <g id="Exclusion_5" data-name="Exclusion 5" transform="translate(0 7.555)">
        <path id="Path_7862" data-name="Path 7862" d="M2029.976-685.1h-19.984a.6.6,0,0,1-.659-.52l.674-13.059a.6.6,0,0,1,.659-.521H2029.3a.6.6,0,0,1,.659.521l.674,13.059A.6.6,0,0,1,2029.976-685.1Zm-4.374-12.389a2.13,2.13,0,0,0-2.127,2.127,2.13,2.13,0,0,0,2.127,2.127,2.13,2.13,0,0,0,2.127-2.127A2.13,2.13,0,0,0,2025.6-697.492Zm-11.191,0a2.13,2.13,0,0,0-2.127,2.127,2.13,2.13,0,0,0,2.127,2.127,2.13,2.13,0,0,0,2.127-2.127,2.129,2.129,0,0,0-2.127-2.127Z" transform="translate(-2009.333 699.203)" fill="gray"/>
      </g>
      <g id="Path_7860" data-name="Path 7860" transform="translate(4.037)">
        <path id="Path_7863" data-name="Path 7863" d="M2081.439-798.963a1.011,1.011,0,0,1-1.011-1.011v-4.689a4.6,4.6,0,0,0-4.592-4.592,4.6,4.6,0,0,0-4.592,4.592v4.689a1.011,1.011,0,0,1-1.011,1.011,1.011,1.011,0,0,1-1.011-1.011v-4.689a6.622,6.622,0,0,1,6.614-6.614,6.622,6.622,0,0,1,6.614,6.614v4.689A1.011,1.011,0,0,1,2081.439-798.963Z" transform="translate(-2069.222 811.277)" fill="gray"/>
      </g>
    </g>
  </g>
</svg>
