<svg id="Group_8727" data-name="Group 8727" xmlns="http://www.w3.org/2000/svg" width="22.135" height="21.655" viewBox="0 0 22.135 21.655">
  <g id="Group_8720" data-name="Group 8720">
    <path id="Path_7864" data-name="Path 7864" d="M915.746,20a2.756,2.756,0,0,1,2.147,1.088,3.329,3.329,0,0,0-1.748.773.418.418,0,0,0,0,.649.584.584,0,0,0,.745,0,2.265,2.265,0,0,1,1.491-.537,1.985,1.985,0,0,1,2.108,1.835c0,.012,0,.024,0,.036a3.918,3.918,0,0,0-.526-.036,3.579,3.579,0,0,0-3.689,3.349.532.532,0,0,0,1.054,0,2.644,2.644,0,0,1,5.27,0,2.04,2.04,0,0,1-.353,1.123.426.426,0,0,0,.177.614,2.231,2.231,0,0,1,1.231,1.933,2.588,2.588,0,0,1-2.635,2.432.463.463,0,1,0,0,.918,3.886,3.886,0,0,0,2.248-.722,2.046,2.046,0,0,1,.387,1.18,2.183,2.183,0,0,1-.961,1.755.426.426,0,0,0-.175.46,1.992,1.992,0,0,1,.082.538,2.6,2.6,0,0,1-2.814,2.416l-.111-.012a.545.545,0,0,0-.537.263,3.23,3.23,0,0,1-2.862,1.6,3.076,3.076,0,0,1-3.162-2.89,2.982,2.982,0,0,1,3.162-2.753.463.463,0,1,0,0-.918,4.5,4.5,0,0,0-3.162,1.246V27.616a.994.994,0,0,1,1.054-.918.463.463,0,1,0,0-.918,2.337,2.337,0,0,0-1.054.247v-3.6A2.606,2.606,0,0,1,915.746,20Z" transform="translate(-901.517 -20)" fill="gray"/>
    <path id="Path_7865" data-name="Path 7865" d="M694.342,28.894a.426.426,0,0,0,.176-.614,2.039,2.039,0,0,1-.353-1.123,2.644,2.644,0,0,1,5.27,0,.532.532,0,0,0,1.054,0,3.579,3.579,0,0,0-3.689-3.349,3.916,3.916,0,0,0-.526.036c0-.012,0-.024,0-.036a1.986,1.986,0,0,1,2.108-1.835,2.264,2.264,0,0,1,1.491.537.584.584,0,0,0,.745,0,.418.418,0,0,0,0-.649,3.329,3.329,0,0,0-1.748-.773A2.756,2.756,0,0,1,701.016,20a2.606,2.606,0,0,1,2.635,2.432v3.6a2.338,2.338,0,0,0-1.054-.247.463.463,0,1,0,0,.918.994.994,0,0,1,1.054.918v8.725a4.5,4.5,0,0,0-3.162-1.246.463.463,0,1,0,0,.918,2.982,2.982,0,0,1,3.162,2.753,3.076,3.076,0,0,1-3.162,2.89,3.229,3.229,0,0,1-2.862-1.6.546.546,0,0,0-.538-.263l-.111.012a2.515,2.515,0,0,1-2.732-2.954.426.426,0,0,0-.175-.46,2.183,2.183,0,0,1-.961-1.755,2.046,2.046,0,0,1,.387-1.181,3.885,3.885,0,0,0,2.248.722.463.463,0,1,0,0-.918,2.588,2.588,0,0,1-2.635-2.432A2.231,2.231,0,0,1,694.342,28.894Z" transform="translate(-693.111 -20)" fill="gray"/>
  </g>
</svg>
