<svg id="Group_8725" data-name="Group 8725" xmlns="http://www.w3.org/2000/svg" width="21.654" height="21.654" viewBox="0 0 21.654 21.654">
  <g id="statistics" transform="translate(0 0)">
    <g id="Group_8586" data-name="Group 8586">
      <path id="Path_7788" data-name="Path 7788" d="M32.866,10.343A1.821,1.821,0,0,0,34.158,9.8L36,10.755a1.971,1.971,0,0,0-.023.235,1.867,1.867,0,1,0,3.732,0,1.978,1.978,0,0,0-.187-.831l2.5-2.6a1.787,1.787,0,0,0,.8.194,1.906,1.906,0,0,0,1.866-1.939,1.979,1.979,0,0,0-.093-.574l2.17-1.691a1.8,1.8,0,0,0,1.033.326,1.906,1.906,0,0,0,1.866-1.939,1.867,1.867,0,1,0-3.732,0,1.979,1.979,0,0,0,.093.574l-2.17,1.691a1.8,1.8,0,0,0-1.033-.326,1.906,1.906,0,0,0-1.866,1.939,1.978,1.978,0,0,0,.187.831l-2.5,2.6a1.787,1.787,0,0,0-.8-.194,1.821,1.821,0,0,0-1.292.545l-1.841-.957a1.972,1.972,0,0,0,.023-.235,1.867,1.867,0,1,0-1.866,1.939Zm0,0" transform="translate(-29.695 0)" fill="gray"/>
      <path id="Path_7789" data-name="Path 7789" d="M21.02,165.29h-.677v-14.6a.664.664,0,0,0-.634-.691H17.171a.664.664,0,0,0-.634.691v14.6H15.268V154.836a.664.664,0,0,0-.634-.691H12.1a.664.664,0,0,0-.634.691V165.29H10.193v-4.928a.664.664,0,0,0-.634-.691H7.021a.664.664,0,0,0-.634.691v4.928H5.118V157.6a.664.664,0,0,0-.634-.691H1.946a.664.664,0,0,0-.634.691v7.691H.634a.693.693,0,0,0,0,1.382H21.02a.693.693,0,0,0,0-1.382Zm0,0" transform="translate(0 -145.017)" fill="gray"/>
    </g>
  </g>
</svg>
