<svg xmlns="http://www.w3.org/2000/svg" width="17.598" height="30.312" viewBox="0 0 17.598 30.312">
  <path id="Path_7814" data-name="Path 7814" d="M11.292,0A1.767,1.767,0,0,0,9.743,1.924v.962H3.1V1.924A1.767,1.767,0,0,0,1.549,0,1.767,1.767,0,0,0,0,1.924V8.08a6.5,6.5,0,0,0,2.075,4.915l1.471,1.263L2.075,15.521A6.5,6.5,0,0,0,0,20.436v6.156a1.767,1.767,0,0,0,1.549,1.924A1.767,1.767,0,0,0,3.1,26.592V25.63H9.743v.962a1.767,1.767,0,0,0,1.549,1.924,1.767,1.767,0,0,0,1.549-1.924v-5.9a6.5,6.5,0,0,0-2.075-4.915L8.994,14.258l1.772-1.522a6.5,6.5,0,0,0,2.075-4.915v-5.9A1.767,1.767,0,0,0,11.292,0ZM9,18.944a2.313,2.313,0,0,1,.739,1.751v1.087H3.1V20.436a2.314,2.314,0,0,1,.739-1.751L6.27,16.6ZM9,9.571,6.27,11.919,3.838,9.83A2.314,2.314,0,0,1,3.1,8.08V6.733H9.743V7.821A2.313,2.313,0,0,1,9,9.571Z" transform="translate(4.952) rotate(10)" fill="#373737"/>
</svg>
