<?xml version="1.0" encoding="utf-8"?>
<!-- Generator: Adobe Illustrator 22.1.0, SVG Export Plug-In . SVG Version: 6.00 Build 0)  -->
<svg version="1.1" id="Layer_1" xmlns="http://www.w3.org/2000/svg" xmlns:xlink="http://www.w3.org/1999/xlink" x="0px" y="0px"
	 viewBox="0 0 12.9 18.8" style="enable-background:new 0 0 12.9 18.8;" xml:space="preserve">
<style type="text/css">
	.st0{fill:#FFFFFF;}
</style>
<g id="Path_7925">
	<path class="st0" d="M6.5,0.5c-3.3,0-6,2.7-6,6c0,1.4,1.1,3.9,3.2,7.2c1.1,1.8,2.2,3.4,2.8,4.2c0.6-0.8,1.7-2.4,2.8-4.2
		c2.1-3.4,3.2-5.9,3.2-7.2C12.4,3.2,9.7,0.5,6.5,0.5z M6.5,8.8c-1.7,0-3.1-1.4-3.1-3.1s1.4-3.1,3.1-3.1S9.6,4,9.6,5.7
		S8.2,8.8,6.5,8.8z"/>
	<path class="st0" d="M6.5,0C2.9,0,0,2.9,0,6.4s6.5,12.3,6.5,12.3s6.5-8.8,6.5-12.3S10,0,6.5,0z M6.5,17c-0.6-0.9-1.5-2.2-2.4-3.6
		C1.4,9,1,7.2,1,6.4C1,3.4,3.5,1,6.5,1c3,0,5.5,2.5,5.5,5.5c0,0.7-0.4,2.6-3.1,7C8,14.9,7.1,16.2,6.5,17z"/>
</g>
</svg>
