<svg id="Group_9952" data-name="Group 9952" xmlns="http://www.w3.org/2000/svg" width="22" height="22" viewBox="0 0 22 22">
  <g id="Group_6" data-name="Group 6" transform="translate(0 0)">
    <rect id="Rectangle_5" data-name="Rectangle 5" width="6.403" height="6.403" rx="1" fill="gray"/>
  </g>
  <g id="Group_10" data-name="Group 10" transform="translate(7.799 0)">
    <rect id="Rectangle_5-2" data-name="Rectangle 5" width="6.403" height="6.403" rx="1" transform="translate(0)" fill="gray"/>
  </g>
  <g id="Group_11" data-name="Group 11" transform="translate(15.597 0)">
    <rect id="Rectangle_5-3" data-name="Rectangle 5" width="6.403" height="6.403" rx="1" transform="translate(0)" fill="gray"/>
  </g>
  <g id="Group_12" data-name="Group 12" transform="translate(15.597 7.799)">
    <rect id="Rectangle_5-4" data-name="Rectangle 5" width="6.403" height="6.403" rx="1" transform="translate(0 0)" fill="gray"/>
  </g>
  <g id="Group_13" data-name="Group 13" transform="translate(7.799 7.799)">
    <rect id="Rectangle_5-5" data-name="Rectangle 5" width="6.403" height="6.403" rx="1" transform="translate(0 0)" fill="gray"/>
  </g>
  <g id="Group_14" data-name="Group 14" transform="translate(0 7.799)">
    <rect id="Rectangle_5-6" data-name="Rectangle 5" width="6.403" height="6.403" rx="1" transform="translate(0 0)" fill="gray"/>
  </g>
  <g id="Group_15" data-name="Group 15" transform="translate(0 15.597)">
    <rect id="Rectangle_5-7" data-name="Rectangle 5" width="6.403" height="6.403" rx="1" transform="translate(0 0)" fill="gray"/>
  </g>
  <g id="Group_16" data-name="Group 16" transform="translate(7.799 15.597)">
    <rect id="Rectangle_5-8" data-name="Rectangle 5" width="6.403" height="6.403" rx="1" transform="translate(0 0)" fill="gray"/>
  </g>
  <g id="Group_17" data-name="Group 17" transform="translate(15.597 15.597)">
    <rect id="Rectangle_5-9" data-name="Rectangle 5" width="6.403" height="6.403" rx="1" transform="translate(0 0)" fill="gray"/>
  </g>
</svg>
