<svg xmlns="http://www.w3.org/2000/svg" width="33.315" height="33.315" viewBox="0 0 33.315 33.315">
  <g id="Group_9184" data-name="Group 9184" transform="translate(-18948 -13390)">
    <g id="Group_8807" data-name="Group 8807" transform="translate(1937.213 2227.088)">
      <rect id="Rectangle_1374" data-name="Rectangle 1374" width="33.315" height="33.315" rx="16.657" transform="translate(17010.787 11162.912)" fill="#3b3b3b"/>
    </g>
    <g id="Group_9185" data-name="Group 9185" transform="translate(18956.244 13336.433)">
      <path id="Path_8710" data-name="Path 8710" d="M14.432,71.34a.689.689,0,0,0,1,0c1.168-1.052,5.137-4.422,7.4-6.338a.343.343,0,0,0,.048-.474A1.364,1.364,0,0,0,21.8,64H8.064a1.363,1.363,0,0,0-1.078.529A.343.343,0,0,0,7.035,65C9.3,66.919,13.266,70.289,14.432,71.34Z" transform="translate(-6.691)" fill="#fff"/>
      <path id="Path_8711" data-name="Path 8711" d="M343.733,126.444a.342.342,0,0,0-.366.05c-1.481,1.256-3.433,2.915-4.905,4.181a.343.343,0,0,0,.009.528c1.368,1.1,3.429,2.6,4.917,3.673a.343.343,0,0,0,.544-.279v-7.842A.343.343,0,0,0,343.733,126.444Z" transform="translate(-327.451 -60.403)" fill="#fff"/>
      <path id="Path_8712" data-name="Path 8712" d="M.544,134.884c1.489-1.071,3.55-2.578,4.918-3.673a.343.343,0,0,0,.009-.528C4,129.417,2.047,127.758.565,126.5a.343.343,0,0,0-.565.262v7.842a.343.343,0,0,0,.544.279Z" transform="translate(0 -60.411)" fill="#fff"/>
      <path id="Path_8713" data-name="Path 8713" d="M18.741,284.694a.344.344,0,0,0-.442.008c-.31.271-.57.5-.754.664a1.39,1.39,0,0,1-1.917,0c-.183-.165-.443-.394-.753-.664a.342.342,0,0,0-.442-.008c-1.575,1.279-4.226,3.2-5.666,4.229a.343.343,0,0,0-.052.513,1.376,1.376,0,0,0,1,.441H23.455a1.378,1.378,0,0,0,1-.441.343.343,0,0,0-.052-.513C22.97,287.894,20.322,285.977,18.741,284.694Z" transform="translate(-8.347 -213.515)" fill="#fff"/>
    </g>
  </g>
</svg>
