<svg id="Group_8653" data-name="Group 8653" xmlns="http://www.w3.org/2000/svg" width="61.482" height="42.096" viewBox="0 0 61.482 42.096">
  <path id="Path_7844" data-name="Path 7844" d="M202.829,221.384a10.477,10.477,0,0,1-4.025,4.242,15.836,15.836,0,0,1-6.542,1.273c-3.423,14.746-24.094,22.251-38.446,18.564s-12.377-20.8-12.377-20.8h42c3.466,0,3.73-1.053,3.73-1.053-3.072-7.286,1.668-11.192,1.668-11.192,3.687.659,4.607,6.978,4.607,6.978a11.377,11.377,0,0,1,4.927,0A18.363,18.363,0,0,1,202.829,221.384Z" transform="translate(-141.347 -204.296)" fill="#fff"/>
  <rect id="Rectangle_152" data-name="Rectangle 152" width="5.882" height="5.354" transform="translate(4.568 13.693)" fill="#fff"/>
  <rect id="Rectangle_153" data-name="Rectangle 153" width="5.882" height="5.354" transform="translate(11.96 13.693)" fill="#fff"/>
  <rect id="Rectangle_154" data-name="Rectangle 154" width="5.882" height="5.354" transform="translate(34.131 13.693)" fill="#fff"/>
  <rect id="Rectangle_155" data-name="Rectangle 155" width="5.882" height="5.354" transform="translate(26.741 13.693)" fill="#fff"/>
  <rect id="Rectangle_156" data-name="Rectangle 156" width="5.882" height="5.354" transform="translate(26.741)" fill="#fff"/>
  <rect id="Rectangle_157" data-name="Rectangle 157" width="5.882" height="5.354" transform="translate(19.35 13.693)" fill="#fff"/>
  <rect id="Rectangle_158" data-name="Rectangle 158" width="5.882" height="5.354" transform="translate(11.96 6.846)" fill="#fff"/>
  <rect id="Rectangle_159" data-name="Rectangle 159" width="5.882" height="5.354" transform="translate(26.741 6.846)" fill="#fff"/>
  <rect id="Rectangle_160" data-name="Rectangle 160" width="5.882" height="5.354" transform="translate(19.35 6.846)" fill="#fff"/>
</svg>
