<svg xmlns="http://www.w3.org/2000/svg" width="39.448" height="29.5" viewBox="0 0 39.448 29.5">
  <g id="Group_8782" data-name="Group 8782" transform="translate(0.309 0.36)">
    <g id="Group_8711" data-name="Group 8711" transform="translate(0.191 0.14)">
      <path id="Exclusion_7" data-name="Exclusion 7" d="M1.2,21.248A1.192,1.192,0,0,1,0,20.066V1.181A1.191,1.191,0,0,1,1.2,0a1.247,1.247,0,0,1,.162.011A137.889,137.889,0,0,0,19.217,1.175,138.216,138.216,0,0,0,37.088.011,1.244,1.244,0,0,1,37.249,0a1.191,1.191,0,0,1,1.2,1.181V20.066a1.192,1.192,0,0,1-1.2,1.181,1.274,1.274,0,0,1-.159-.01,137.382,137.382,0,0,0-35.728,0A1.245,1.245,0,0,1,1.2,21.248Zm13.014-7.962a.448.448,0,1,0,0,.9H24.233a.448.448,0,1,0,0-.9Zm7.856-3.578a.565.565,0,0,0-.569.559v2.572h2.731V10.266a.565.565,0,0,0-.569-.559Zm-3.7-1.927c-.314,0-.569.189-.569.421v4.637h2.732V8.2c0-.232-.255-.421-.569-.421ZM14.784,6.127a.565.565,0,0,0-.57.56v6.151h2.732V6.687a.565.565,0,0,0-.569-.56Z" fill="#373737" stroke="rgba(0,0,0,0)" stroke-miterlimit="10" stroke-width="1"/>
      <path id="Path_7867" data-name="Path 7867" d="M210.763,471.611s.074,0,0,0V468.1c-2.364-.064-1.494-.064-3.859,0v3.509h0l-8.557,2.723a1.187,1.187,0,0,0,1.679,1.678l8.892-4.053,8.426,4.053a1.187,1.187,0,1,0,1.679-1.678Z" transform="translate(-189.459 -447.359)" fill="#373737"/>
    </g>
  </g>
</svg>
