<svg xmlns="http://www.w3.org/2000/svg" width="32.569" height="29" viewBox="0 0 32.569 29">
  <g id="Group_8767" data-name="Group 8767" transform="translate(-1792 -1050.999)">
    <path id="Path_7913" data-name="Path 7913" d="M2046.1,1148.085l3.331-3.33a1.1,1.1,0,0,0,0-1.548l-3.331-3.33a.007.007,0,0,1,0-.01l.657-.657a2.938,2.938,0,0,0-2.192-5.013,3,3,0,0,0-2,.895l-.621.621a.007.007,0,0,1-.01,0l-3.287-3.287a1.156,1.156,0,0,0-1.634,0l-.393.394a.007.007,0,0,0,0,.005v1.908a.007.007,0,0,0,.005.007,4.876,4.876,0,0,1,0,9.483.007.007,0,0,0-.005.007v5.931a.007.007,0,0,1-.007.007h-3.547l0,0-.1.1a.857.857,0,0,0,0,1.213l4.023,4.022a1.2,1.2,0,0,0,1.7,0l3.254-3.254a.007.007,0,0,1,.01,0l.566.566a2.938,2.938,0,1,0,4.155-4.155l-.566-.566A.007.007,0,0,1,2046.1,1148.085Zm0,.005" transform="translate(-225.181 -75.857)" fill="#373737"/>
    <path id="Path_7914" data-name="Path 7914" d="M1809.5,1070.931v-4.363a.007.007,0,0,1,.007-.007h.738a2.938,2.938,0,1,0,.062-5.876h-.8a.007.007,0,0,1-.007-.007v-4.765a1.04,1.04,0,0,0-1.04-1.04h-4.764a.007.007,0,0,1-.007-.007V1054a2.938,2.938,0,1,0-5.876-.061v.929a.007.007,0,0,1-.007.007h-4.613a1.191,1.191,0,0,0-1.191,1.191v4.614a.007.007,0,0,0,.007.007h.8a2.942,2.942,0,0,1,2.88,2.356v0a.994.994,0,0,1,0,1.159v0a2.943,2.943,0,0,1-2.88,2.356h-.8a.007.007,0,0,0-.007.007v4.534a1.27,1.27,0,0,0,1.27,1.27h4.534a.007.007,0,0,0,.007-.007v-.868a2.938,2.938,0,1,1,5.876-.061v.929a.007.007,0,0,0,.007.007h4.363A1.442,1.442,0,0,0,1809.5,1070.931Zm0,1.442" transform="translate(0)" fill="#373737"/>
  </g>
</svg>
