<svg id="Group_8722" data-name="Group 8722" xmlns="http://www.w3.org/2000/svg" width="21.822" height="21.385" viewBox="0 0 21.822 21.385">
  <g id="Group_8723" data-name="Group 8723" transform="translate(0)">
    <g id="settings-gears">
      <path id="Path_7790" data-name="Path 7790" d="M1.41,12.733a5.481,5.481,0,0,0,.467,1.144l-.564.734a.616.616,0,0,0,.044.8l.972,1a.568.568,0,0,0,.774.045l.707-.577a5.053,5.053,0,0,0,1.153.5l.106.938a.589.589,0,0,0,.578.532H7.021A.589.589,0,0,0,7.6,17.32l.1-.9A5.106,5.106,0,0,0,8.936,15.9l.684.558a.571.571,0,0,0,.774-.045l.972-1a.613.613,0,0,0,.044-.8l-.532-.7a5.322,5.322,0,0,0,.509-1.254l.82-.1a.594.594,0,0,0,.516-.6V10.554a.594.594,0,0,0-.516-.6l-.808-.1a5.361,5.361,0,0,0-.488-1.239l.5-.648a.616.616,0,0,0-.044-.8l-.969-1a.568.568,0,0,0-.774-.045l-.61.5a5.041,5.041,0,0,0-1.264-.546l-.092-.814a.589.589,0,0,0-.578-.532H5.7a.589.589,0,0,0-.578.532l-.092.814a5.021,5.021,0,0,0-1.3.565L3.1,6.131a.571.571,0,0,0-.774.045l-.972,1a.613.613,0,0,0-.044.8l.53.691a5.261,5.261,0,0,0-.479,1.251l-.847.1a.594.594,0,0,0-.516.6V12.03a.594.594,0,0,0,.516.6ZM6.39,8.9a2.344,2.344,0,0,1,0,4.686,2.344,2.344,0,0,1,0-4.686Z" transform="translate(-0.001 -4.737)" fill="gray"/>
      <path id="Path_7791" data-name="Path 7791" d="M486.159,289.2l-.666-.561a.527.527,0,0,0-.7.019l-.368.344a3.8,3.8,0,0,0-.981-.317l-.1-.507a.532.532,0,0,0-.562-.422l-.869.074a.529.529,0,0,0-.484.509l-.017.515a3.813,3.813,0,0,0-.936.492l-.44-.291a.529.529,0,0,0-.7.1l-.562.669a.525.525,0,0,0,.019.7l.385.409a3.925,3.925,0,0,0-.283.937l-.55.112a.531.531,0,0,0-.423.562l.074.868a.529.529,0,0,0,.509.483l.594.019a3.871,3.871,0,0,0,.421.8l-.332.5a.527.527,0,0,0,.1.695l.666.561a.527.527,0,0,0,.7-.019l.435-.407a3.821,3.821,0,0,0,.894.291l.12.6a.532.532,0,0,0,.562.422l.869-.074a.529.529,0,0,0,.484-.509l.019-.583a3.91,3.91,0,0,0,.894-.452l.48.317a.529.529,0,0,0,.7-.1l.562-.665a.526.526,0,0,0-.019-.7l-.387-.409a3.8,3.8,0,0,0,.3-.941l.528-.108a.531.531,0,0,0,.423-.561l-.074-.868a.529.529,0,0,0-.509-.483l-.531-.017a3.828,3.828,0,0,0-.442-.87l.29-.435A.524.524,0,0,0,486.159,289.2Zm-3.274,5.015a1.705,1.705,0,1,1,1.558-1.843A1.707,1.707,0,0,1,482.885,294.22Z" transform="translate(-465.701 -281.99)" fill="gray"/>
      <path id="Path_7792" data-name="Path 7792" d="M182.834,562.183a.591.591,0,0,0-.53.582l-.007.6a.59.59,0,0,0,.516.594l.44.057a3.415,3.415,0,0,0,.312.765l-.284.35a.59.59,0,0,0,.036.786l.419.428a.591.591,0,0,0,.786.054l.353-.272a3.452,3.452,0,0,0,.786.343l.047.455a.591.591,0,0,0,.582.53l.6.007a.59.59,0,0,0,.594-.516l.054-.431a3.553,3.553,0,0,0,.852-.332l.331.268a.59.59,0,0,0,.786-.036l.428-.419a.591.591,0,0,0,.054-.786l-.253-.329a3.433,3.433,0,0,0,.36-.829l.393-.04a.591.591,0,0,0,.53-.582l.007-.6a.59.59,0,0,0-.516-.594l-.383-.05a3.568,3.568,0,0,0-.324-.829l.239-.294a.59.59,0,0,0-.035-.786l-.419-.428a.591.591,0,0,0-.786-.055l-.286.22a3.483,3.483,0,0,0-.861-.374l-.038-.372a.591.591,0,0,0-.582-.53l-.6-.007a.59.59,0,0,0-.594.516l-.047.369a3.576,3.576,0,0,0-.892.365l-.3-.241a.59.59,0,0,0-.786.036l-.431.421a.591.591,0,0,0-.054.786l.253.327a3.465,3.465,0,0,0-.338.829Zm3.865-.677a1.558,1.558,0,1,1-1.576,1.539A1.559,1.559,0,0,1,186.7,561.506Z" transform="translate(-176.653 -546.077)" fill="gray"/>
    </g>
  </g>
</svg>
