<svg xmlns="http://www.w3.org/2000/svg" width="15.611" height="14.961" viewBox="0 0 15.611 14.961">
  <g id="Group_9994" data-name="Group 9994" transform="translate(-1792 -1034.913)">
    <g id="Group_9989" data-name="Group 9989" transform="translate(1792 1034.913)">
      <g id="Group_9991" data-name="Group 9991" transform="translate(0 0)">
        <path id="Path_8720" data-name="Path 8720" d="M1807.57,1041.618a.828.828,0,0,0-.714-.571l-4.506-.409-1.782-4.17a.83.83,0,0,0-1.526,0l-1.782,4.169-4.506.409a.831.831,0,0,0-.471,1.452l3.406,2.987-1,4.424a.828.828,0,0,0,1.234.9l3.887-2.323,3.885,2.323a.83.83,0,0,0,1.235-.9l-1-4.424,3.406-2.986a.83.83,0,0,0,.243-.882Zm0,0" transform="translate(-1791.999 -1035.965)" fill="#b29762"/>
      </g>
    </g>
  </g>
</svg>
