<svg xmlns="http://www.w3.org/2000/svg" width="60.951" height="45.719" viewBox="0 0 60.951 45.719">
  <g id="Group_8712" data-name="Group 8712" transform="translate(0.5 0.5)">
    <g id="Group_8711" data-name="Group 8711" transform="translate(0 0)">
      <path id="Exclusion_7" data-name="Exclusion 7" d="M1.87,33.131h0A1.858,1.858,0,0,1,0,31.29V1.841A1.858,1.858,0,0,1,1.871,0a1.943,1.943,0,0,1,.251.016A214.92,214.92,0,0,0,29.965,1.833,215.406,215.406,0,0,0,57.83.016,1.938,1.938,0,0,1,58.081,0a1.858,1.858,0,0,1,1.87,1.841V31.29a1.858,1.858,0,0,1-1.872,1.841,1.985,1.985,0,0,1-.249-.016,214.214,214.214,0,0,0-55.71,0A1.938,1.938,0,0,1,1.87,33.131ZM23.452,21.472a.583.583,0,1,0,0,1.166H36.5a.583.583,0,1,0,0-1.166Zm10.231-4.66a.735.735,0,0,0-.741.728v3.35H36.5v-3.35a.735.735,0,0,0-.741-.728ZM28.938,14.48a.736.736,0,0,0-.741.728v5.682h3.559V16.163a1.657,1.657,0,0,1-.214-.069,1.607,1.607,0,0,1-.973-1.469V14.48Zm-4.745-2.331a.735.735,0,0,0-.741.728v8.013h3.559V12.877a.736.736,0,0,0-.741-.728Zm6.969-3.5a1.177,1.177,0,0,0-1.186,1.165v2.331a1.178,1.178,0,0,0,1.186,1.166h.594V14.48a.582.582,0,0,0,.356.533.593.593,0,0,0,.237.049.6.6,0,0,0,.4-.155l1.757-1.593h1.4a1.177,1.177,0,0,0,1.186-1.165V9.818a1.178,1.178,0,0,0-1.187-1.165Z" transform="translate(0)" fill="#fff" stroke="rgba(0,0,0,0)" stroke-miterlimit="10" stroke-width="1"/>
      <path id="Path_7867" data-name="Path 7867" d="M217.9,473.6s.115,0,0,0v-5.471c-3.686-.1-2.33-.1-6.017,0V473.6l-.59,0,.59,0-13.342,4.246a1.851,1.851,0,0,0,2.618,2.617l13.865-6.32,13.138,6.32a1.851,1.851,0,1,0,2.618-2.617Z" transform="translate(-184.683 -435.785)" fill="#fff"/>
    </g>
  </g>
</svg>
