<svg xmlns="http://www.w3.org/2000/svg" width="33.315" height="33.315" viewBox="0 0 33.315 33.315">
  <g id="Group_8805" data-name="Group 8805" transform="translate(-17010.787 -11162.912)">
    <rect id="Rectangle_1374" data-name="Rectangle 1374" width="33.315" height="33.315" rx="16.657" transform="translate(17010.787 11162.912)" fill="#3b3b3b"/>
    <g id="Path_7924" data-name="Path 7924" transform="translate(17022.375 11180.294)" fill="none">
      <path d="M5.436,0a5.436,5.436,0,0,1,5.436,5.436c0,3-10.872,3-10.872,0A5.436,5.436,0,0,1,5.436,0Z" stroke="none"/>
      <path d="M 5.435782432556152 1.000001430511475 C 2.989882469177246 1.000001430511475 1.000002861022949 2.989881038665771 1.000002861022949 5.435781478881836 C 1.000002861022949 5.860570907592773 2.565682411193848 6.687351226806641 5.435782432556152 6.687351226806641 C 8.305882453918457 6.687351226806641 9.871562957763672 5.860570907592773 9.871562957763672 5.435781478881836 C 9.871562957763672 2.989881038665771 7.881682395935059 1.000001430511475 5.435782432556152 1.000001430511475 M 5.435782432556152 9.5367431640625e-07 C 8.437882423400879 9.5367431640625e-07 10.87156200408936 2.433681011199951 10.87156200408936 5.435781478881836 C 10.87156200408936 6.936831474304199 8.153672218322754 7.687355995178223 5.435782432556152 7.687355995178223 C 2.717892646789551 7.687355995178223 2.86102294921875e-06 6.936831474304199 2.86102294921875e-06 5.435781478881836 C 2.86102294921875e-06 2.433681011199951 2.433682441711426 9.5367431640625e-07 5.435782432556152 9.5367431640625e-07 Z" stroke="none" fill="#fff"/>
    </g>
    <g id="Ellipse_14" data-name="Ellipse 14" transform="translate(17023.824 11173.052)" fill="none" stroke="#fff" stroke-width="1">
      <circle cx="3.987" cy="3.987" r="3.987" stroke="none"/>
      <circle cx="3.987" cy="3.987" r="3.487" fill="none"/>
    </g>
  </g>
</svg>
