<svg xmlns="http://www.w3.org/2000/svg" width="25.649" height="30.778" viewBox="0 0 25.649 30.778">
  <g id="Group_8766" data-name="Group 8766" transform="translate(-42.667)">
    <path id="Path_7904" data-name="Path 7904" d="M86.443,318.951H77.466v-.641a.641.641,0,0,0-.641-.641h-.641v-1.443c1.275-.584,2.481-2.848,3.19-6.115a.64.64,0,0,0-.626-.777h-6.41a.64.64,0,0,0-.626.777c.708,3.268,1.915,5.531,3.19,6.115v1.443h-.641a.641.641,0,0,0-.641.641v.641H64.641a.641.641,0,0,0,0,1.282h8.977v.641a.641.641,0,0,0,.641.641h2.565a.641.641,0,0,0,.641-.641v-.641h8.977a.641.641,0,0,0,0-1.282Z" transform="translate(-20.051 -290.738)" fill="#373737"/>
    <path id="Path_7905" data-name="Path 7905" d="M315.2,315.414a.642.642,0,0,0,.481.217.627.627,0,0,0,.22-.039,12.884,12.884,0,0,0,6.479-5.279.642.642,0,0,0-.545-.979h-4.526a.642.642,0,0,0-.63.519,18.331,18.331,0,0,1-1.568,4.844A.642.642,0,0,0,315.2,315.414Z" transform="translate(-256.002 -290.738)" fill="#373737"/>
    <path id="Path_7906" data-name="Path 7906" d="M192.166,6.815a.644.644,0,0,0,.5.239h6.41a.64.64,0,0,0,.626-.777C198.875,2.463,197.371,0,195.871,0s-3,2.463-3.831,6.276A.641.641,0,0,0,192.166,6.815Z" transform="translate(-140.379)" fill="#373737"/>
    <path id="Path_7907" data-name="Path 7907" d="M189.452,147.644a.642.642,0,0,0,.637-.567,34.993,34.993,0,0,0,0-7.844.642.642,0,0,0-.637-.567h-7.261a.642.642,0,0,0-.637.567,35,35,0,0,0,0,7.844.642.642,0,0,0,.637.567Z" transform="translate(-130.33 -130.331)" fill="#373737"/>
    <path id="Path_7908" data-name="Path 7908" d="M49.765,147.431a.64.64,0,0,0,.16-.5,34.853,34.853,0,0,1,0-7.557.641.641,0,0,0-.637-.71h-5.35a.642.642,0,0,0-.609.438,12.711,12.711,0,0,0,0,8.1.642.642,0,0,0,.609.438h5.35A.643.643,0,0,0,49.765,147.431Z" transform="translate(0 -130.331)" fill="#373737"/>
    <path id="Path_7909" data-name="Path 7909" d="M73.891,18.868h4.526a.642.642,0,0,0,.63-.519A18.327,18.327,0,0,1,80.615,13.5a.641.641,0,0,0-.79-.9,12.883,12.883,0,0,0-6.479,5.279.642.642,0,0,0,.545.979Z" transform="translate(-28.744 -11.814)" fill="#373737"/>
    <path id="Path_7910" data-name="Path 7910" d="M355.119,139.105a.643.643,0,0,0-.609-.438h-5.35a.641.641,0,0,0-.637.71,34.858,34.858,0,0,1,0,7.557.641.641,0,0,0,.637.71h5.35a.643.643,0,0,0,.609-.438,12.713,12.713,0,0,0,0-8.1Z" transform="translate(-287.466 -130.331)" fill="#373737"/>
    <path id="Path_7911" data-name="Path 7911" d="M78.417,309.333H73.891a.642.642,0,0,0-.545.979,12.884,12.884,0,0,0,6.479,5.279.628.628,0,0,0,.22.039.641.641,0,0,0,.57-.935,18.328,18.328,0,0,1-1.568-4.844A.642.642,0,0,0,78.417,309.333Z" transform="translate(-28.744 -290.738)" fill="#373737"/>
    <path id="Path_7912" data-name="Path 7912" d="M316.682,18.348a.642.642,0,0,0,.63.519h4.526a.642.642,0,0,0,.545-.979,12.883,12.883,0,0,0-6.479-5.279.641.641,0,0,0-.79.9A18.331,18.331,0,0,1,316.682,18.348Z" transform="translate(-256.002 -11.814)" fill="#373737"/>
  </g>
</svg>
