<svg xmlns="http://www.w3.org/2000/svg" width="61" height="70.118" viewBox="0 0 61 70.118"><g transform="translate(-875 -324.882)"><g transform="translate(0 9)"><g transform="translate(878.882 315.882)"><path d="M4.353,52.236h43.53a4.358,4.358,0,0,0,4.353-4.353V4.353A4.358,4.358,0,0,0,47.883,0H4.353A4.358,4.358,0,0,0,0,4.353v43.53A4.358,4.358,0,0,0,4.353,52.236ZM47.883,50.5H4.353a2.612,2.612,0,0,1-2.612-2.612V8.706H50.5V47.883A2.612,2.612,0,0,1,47.883,50.5ZM4.353,1.741h43.53A2.612,2.612,0,0,1,50.5,4.353V6.965H1.741V4.353A2.612,2.612,0,0,1,4.353,1.741Z" fill="#fff"/><path d="M43.538,35.874h.871a.871.871,0,1,0,0-1.741h-.871a.871.871,0,0,0,0,1.741Z" transform="translate(-38.314 -30.651)" fill="#fff"/><path d="M85.873,35.785a.821.821,0,0,0,.662,0,1.006,1.006,0,0,0,.287-.183.883.883,0,0,0,0-1.236,1.006,1.006,0,0,0-.287-.183.8.8,0,0,0-.662,0,1.006,1.006,0,0,0-.287.183.883.883,0,0,0,0,1.236A1.006,1.006,0,0,0,85.873,35.785Z" transform="translate(-76.627 -30.632)" fill="#fff"/><path d="M119.719,35.577a.883.883,0,0,0,1.236,0,1.006,1.006,0,0,0,.183-.287.729.729,0,0,0,.07-.331.871.871,0,0,0-1.489-.618,1,1,0,0,0-.183.287.821.821,0,0,0,0,.662A1,1,0,0,0,119.719,35.577Z" transform="translate(-107.278 -30.606)" fill="#fff"/><path d="M163,35.874h29.6a.871.871,0,0,0,0-1.741H163a.871.871,0,1,0,0,1.741Z" transform="translate(-145.592 -30.651)" fill="#fff"/><path d="M115.606,125.164a.862.862,0,0,0-.075-.127.774.774,0,0,0-.13-.1,17.334,17.334,0,0,0-25.247,0,.778.778,0,0,0-.13.1.87.87,0,0,0-.075.127,17.307,17.307,0,0,0,0,23.461.859.859,0,0,0,.075.127.805.805,0,0,0,.129.1,17.334,17.334,0,0,0,25.26-.008.808.808,0,0,0,.122-.087.853.853,0,0,0,.075-.127,17.307,17.307,0,0,0,0-23.461Zm-.839,21.8a17.658,17.658,0,0,0-3.784-2.32,31.049,31.049,0,0,0,.911-6.878H118.4A15.584,15.584,0,0,1,114.767,146.963Zm-27.617-9.2h6.508a31.049,31.049,0,0,0,.911,6.878,17.66,17.66,0,0,0-3.784,2.318A15.584,15.584,0,0,1,87.149,137.765Zm3.636-10.939a17.664,17.664,0,0,0,3.784,2.32,31.048,31.048,0,0,0-.911,6.878H87.149A15.584,15.584,0,0,1,90.785,126.826Zm11.12,2.268a18.491,18.491,0,0,1-5.211-.992c1.189-3.632,3.077-6.2,5.211-6.757Zm0,1.741v5.189H95.4a29.474,29.474,0,0,1,.818-6.231,20.132,20.132,0,0,0,5.69,1.043Zm0,6.93v5.188A20.13,20.13,0,0,0,96.215,144a29.471,29.471,0,0,1-.818-6.233Zm0,6.93v7.748c-2.134-.559-4.021-3.125-5.211-6.757A18.489,18.489,0,0,1,101.905,144.695Zm1.741,0a18.487,18.487,0,0,1,5.211.992c-1.189,3.632-3.077,6.2-5.211,6.757Zm0-1.741v-5.189h6.508a29.473,29.473,0,0,1-.818,6.231,20.132,20.132,0,0,0-5.69-1.043Zm0-6.93v-5.188a20.137,20.137,0,0,0,5.69-1.045,29.469,29.469,0,0,1,.818,6.233Zm0-6.93v-7.748c2.134.559,4.021,3.125,5.211,6.757A18.485,18.485,0,0,1,103.646,129.094Zm3.879-7.13a15.672,15.672,0,0,1,6.04,3.595,15.935,15.935,0,0,1-3.076,1.893A16,16,0,0,0,107.525,121.964Zm-12.463,5.485a15.94,15.94,0,0,1-3.076-1.893,15.672,15.672,0,0,1,6.04-3.595,16,16,0,0,0-2.964,5.49Zm0,18.887a16,16,0,0,0,2.964,5.485,15.672,15.672,0,0,1-6.04-3.595,15.936,15.936,0,0,1,3.076-1.888Zm15.427,0a15.936,15.936,0,0,1,3.076,1.893,15.672,15.672,0,0,1-6.04,3.595,16,16,0,0,0,2.964-5.485Zm1.405-10.311a31.048,31.048,0,0,0-.911-6.878,17.657,17.657,0,0,0,3.784-2.318,15.584,15.584,0,0,1,3.636,9.2Z" transform="translate(-76.658 -107.294)" fill="#fff"/></g><text transform="translate(875 383)" fill="#fff" font-size="13" font-family="Helvetica"><tspan x="0" y="0">Web Tools</tspan></text></g></g></svg>