<svg xmlns="http://www.w3.org/2000/svg" width="50" height="70.909" viewBox="0 0 50 70.909"><g transform="translate(-8298 -3536.091)"><g transform="translate(8299.089 3536.091)"><path d="M31.011,0C21.346,0,13.483,8.351,13.483,18.615a19.413,19.413,0,0,0,2.139,8.905L1.452,42.571a5.488,5.488,0,0,0,0,7.438,4.746,4.746,0,0,0,7,0L22.626,34.958a16.624,16.624,0,0,0,8.385,2.272c9.665,0,17.527-8.351,17.527-18.615S40.675,0,31.011,0ZM6.435,47.865a2.009,2.009,0,0,1-2.965,0,2.323,2.323,0,0,1,0-3.149L17.229,30.1a18.266,18.266,0,0,0,2.965,3.149ZM31.011,34.2c-8.09,0-14.672-6.99-14.672-15.583S22.921,3.032,31.011,3.032s14.672,6.99,14.672,15.583S39.1,34.2,31.011,34.2Z" transform="translate(0.001 0)" fill="#fff"/><path d="M6.677,0A1.045,1.045,0,0,0,5.76,1.137v.569H1.832V1.137A1.045,1.045,0,0,0,.916,0,1.045,1.045,0,0,0,0,1.137v3.64A3.84,3.84,0,0,0,1.227,7.683l.87.747-.87.747A3.84,3.84,0,0,0,0,12.083v3.64A1.045,1.045,0,0,0,.916,16.86a1.045,1.045,0,0,0,.916-1.137v-.569H5.76v.569a1.045,1.045,0,0,0,.916,1.137,1.045,1.045,0,0,0,.916-1.137V12.236A3.84,3.84,0,0,0,6.366,9.33l-1.048-.9,1.048-.9A3.84,3.84,0,0,0,7.593,4.624V1.137A1.045,1.045,0,0,0,6.677,0ZM5.323,11.2a1.368,1.368,0,0,1,.437,1.035v.643H1.832v-.8a1.368,1.368,0,0,1,.437-1.035L3.707,9.813Zm0-5.542L3.707,7.047,2.269,5.812a1.368,1.368,0,0,1-.437-1.035v-.8H5.76v.643A1.368,1.368,0,0,1,5.323,5.659Z" transform="matrix(0.998, 0.07, -0.07, 0.998, 27.519, 10.427)" fill="#fff"/></g><text transform="translate(8298 3604)" fill="#fff" font-size="13" font-family="Helvetica"><tspan x="0" y="0">Forensic</tspan></text></g></svg>