<svg xmlns="http://www.w3.org/2000/svg" width="67" height="71.118" viewBox="0 0 67 71.118"><g transform="translate(-1034.038 -559)"><g transform="translate(1039 557)"><path d="M42.9,31.3a1.5,1.5,0,1,0,1.5,1.5A1.5,1.5,0,0,0,42.9,31.3Zm0,2.043a.543.543,0,1,1,.542-.543A.543.543,0,0,1,42.9,33.347Zm0,0" transform="translate(-30 -25)" fill="#71757d"/><path d="M106.524,31.3a1.5,1.5,0,1,0,1.5,1.5A1.5,1.5,0,0,0,106.524,31.3Zm0,2.043a.543.543,0,1,1,.542-.543A.543.543,0,0,1,106.524,33.347Zm0,0" transform="translate(-100.875 -25)" fill="#71757d"/><path d="M170.148,31.3a1.5,1.5,0,1,0,1.5,1.5A1.5,1.5,0,0,0,170.148,31.3Zm0,2.043a.543.543,0,1,1,.543-.543A.543.543,0,0,1,170.148,33.347Zm0,0" transform="translate(-160.648 -25)" fill="#71757d"/><path d="M47.288,0H2.712A2.715,2.715,0,0,0,0,2.712V35.355a2.715,2.715,0,0,0,2.712,2.712H7.483a.739.739,0,0,0,.06.977L11.1,42.6a15.163,15.163,0,0,0-.7,1.682H5.375a.74.74,0,0,0-.739.74V49.26a.74.74,0,0,0,.739.74h14.6a.74.74,0,0,0,.74-.74,4.093,4.093,0,1,1,8.185,0,.74.74,0,0,0,.74.74h14.6a.74.74,0,0,0,.74-.74V45.02a.74.74,0,0,0-.74-.74H39.206a15.163,15.163,0,0,0-.7-1.682l3.554-3.554a.74.74,0,0,0,.06-.977h5.166A2.715,2.715,0,0,0,50,35.355v-18.3a.739.739,0,1,0-1.479,0v18.3a1.234,1.234,0,0,1-1.233,1.233H40.651l-4.359-4.359V27.169a.74.74,0,0,0-.74-.74H34.221V21.872l1.044-.964a.74.74,0,0,0,.2-.763l-1.775-5.72a.74.74,0,0,0-.706-.52H31.015a.74.74,0,0,0-.706.52l-1.775,5.72a.74.74,0,0,0,.2.763l1.044.964V26.43H28.452a.74.74,0,0,0-.74.74v1.923H21.893V27.969l2.84-2.84a.739.739,0,0,0,.217-.523V18.54a.739.739,0,0,0-.22-.526l-3.944-3.9a.74.74,0,0,0-1.26.526v6.594L17.6,22.449,15.68,21.238v-.422a.74.74,0,1,0-1.479,0v.83a.739.739,0,0,0,.346.626l2.663,1.677a.739.739,0,0,0,.788,0l2.663-1.677a.739.739,0,0,0,.346-.626V16.415l2.465,2.435V24.3l-2.84,2.84a.74.74,0,0,0-.217.523v1.445a.74.74,0,0,0-.592.725v5.025a15.167,15.167,0,0,0-1.682.7l-3.347-3.347V27.663a.74.74,0,0,0-.217-.523l-2.84-2.84v-5.45L14.2,16.415v.938a.74.74,0,1,0,1.479,0V14.645a.74.74,0,0,0-1.26-.526l-3.945,3.9a.739.739,0,0,0-.22.526v6.065a.739.739,0,0,0,.217.523l2.84,2.84v4.259L8.954,36.588H2.712a1.234,1.234,0,0,1-1.233-1.233V10.749H48.521v2.862a.74.74,0,0,0,1.479,0V2.712A2.715,2.715,0,0,0,47.288,0ZM31.024,21l-.939-.867,1.476-4.753h.882l1.475,4.753L32.98,21a.74.74,0,0,0-.238.544V26.43H31.263V21.548A.741.741,0,0,0,31.024,21Zm3.788,6.9v4.3l-3.347,3.347a15.244,15.244,0,0,0-1.682-.7V29.832a.74.74,0,0,0-.592-.725v-1.2h5.621Zm-16.467,9.2A13.7,13.7,0,0,1,20.778,36.1a.74.74,0,0,0,.523-.708V30.572h7v4.822a.74.74,0,0,0,.524.708,13.7,13.7,0,0,1,2.433,1.009.74.74,0,0,0,.871-.13l3.411-3.411,4.28,4.28h0l.671.67-3.411,3.411a.74.74,0,0,0-.13.871,13.675,13.675,0,0,1,1.009,2.433.74.74,0,0,0,.707.523h4.822v2.761h-7.52a11.2,11.2,0,0,0-15.719-9.49.74.74,0,0,0,.6,1.352,9.72,9.72,0,0,1,13.634,8.138H30.326a5.572,5.572,0,0,0-11.046,0H15.116a9.61,9.61,0,0,1,3.043-6.348.74.74,0,0,0-1.012-1.079,11.241,11.241,0,0,0-3.513,7.427H6.114V45.759h4.822a.74.74,0,0,0,.708-.523A13.675,13.675,0,0,1,12.653,42.8a.74.74,0,0,0-.13-.871L9.113,38.521l.671-.67h0l4.28-4.28,3.411,3.411A.74.74,0,0,0,18.345,37.111ZM1.479,9.27V2.712A1.234,1.234,0,0,1,2.712,1.479H47.288a1.234,1.234,0,0,1,1.233,1.233V9.27Zm0,0" transform="translate(2 2)" fill="#71757d"/></g><text transform="translate(1034.038 627.118)" fill="#71757d" font-size="15" font-family="Helvetica"><tspan x="0" y="0">Black Box</tspan></text></g></svg>