<svg xmlns="http://www.w3.org/2000/svg" width="59.316" height="89.118" viewBox="0 0 59.316 89.118"><g transform="translate(-8310 -3682)"><g transform="translate(8310 3676.999)"><path d="M145.3,34.545H130.782V32.173H134.7a1.054,1.054,0,0,0,0-2.085h-3.918V27.715h2.72a3.531,3.531,0,0,0,2.683-1.284l5.932-6.857a2.511,2.511,0,0,0,1.259.341,2.634,2.634,0,0,0,2-.958,3.642,3.642,0,0,0,0-4.626,2.569,2.569,0,0,0-4,0,3.523,3.523,0,0,0-.829,2.313,3.678,3.678,0,0,0,.295,1.456l-5.932,6.857a1.852,1.852,0,0,1-1.407.674h-2.72v-2.3c0-3.033-2.134-5.5-4.758-5.5h-1.99V8.6a3.271,3.271,0,0,0,1.928-3.1,2.86,2.86,0,1,0-5.66,0,3.272,3.272,0,0,0,1.928,3.1V17.83h-2.052V13.3a.911.911,0,1,0-1.8,0V17.83h-2.052V1.044a.911.911,0,1,0-1.8,0V17.83h-2.052V13.3a.911.911,0,1,0-1.8,0V17.83h-2.052V14.686a4.723,4.723,0,0,0-1.111-3.1l-5.934-6.859a3.664,3.664,0,0,0-.532-3.766,2.571,2.571,0,0,0-4,0,3.647,3.647,0,0,0,0,4.626,2.641,2.641,0,0,0,2,.957,2.526,2.526,0,0,0,1.257-.342l5.934,6.859a2.477,2.477,0,0,1,.583,1.627V17.83h-1.99a4.171,4.171,0,0,0-1.189.173,1.065,1.065,0,0,0-.649,1.27.9.9,0,0,0,1.1.75,2.593,2.593,0,0,1,.739-.108h21.207a3.213,3.213,0,0,1,2.954,3.415V47.845a3.943,3.943,0,0,1-.093.854,1.065,1.065,0,0,0,.649,1.269.788.788,0,0,0,.225.033.936.936,0,0,0,.873-.783,6.335,6.335,0,0,0,.15-1.373v-2.3h7.984a2.9,2.9,0,0,0,2.682,2.229,3.306,3.306,0,0,0,0-6.542,2.9,2.9,0,0,0-2.682,2.229h-7.984V41.087H134.7a1.054,1.054,0,0,0,0-2.085h-3.918V36.63H145.3a1.054,1.054,0,0,0,0-2.085ZM142.65,15.805a.931.931,0,0,1,1.451,0,1.32,1.32,0,0,1,0,1.677.931.931,0,0,1-1.451,0,1.32,1.32,0,0,1,0-1.677ZM99.76,4.111a.932.932,0,0,1-1.451,0,1.322,1.322,0,0,1,0-1.677.932.932,0,0,1,1.451,0A1.322,1.322,0,0,1,99.76,4.111Zm23.373,2.576A1.116,1.116,0,0,1,122.107,5.5a1.037,1.037,0,1,1,2.052,0A1.116,1.116,0,0,1,123.133,6.687Zm18.315,36.629a1.2,1.2,0,1,1-1.026,1.186A1.116,1.116,0,0,1,141.448,43.316Z" transform="translate(-86.89 5)" fill="#71757d"/><path d="M49.173,196.722a2.554,2.554,0,0,0-3.258-.615l-5.934-6.859a2.477,2.477,0,0,1-.583-1.627v-3.144h1.99a4.169,4.169,0,0,0,1.189-.173,1.065,1.065,0,0,0,.649-1.27.9.9,0,0,0-1.1-.75,2.592,2.592,0,0,1-.739.107H20.181a3.213,3.213,0,0,1-2.954-3.415V154.463a3.937,3.937,0,0,1,.093-.854,1.065,1.065,0,0,0-.649-1.27.9.9,0,0,0-1.1.75,6.328,6.328,0,0,0-.15,1.374v2.3H7.439a2.9,2.9,0,0,0-2.682-2.229,3.306,3.306,0,0,0,0,6.542,2.9,2.9,0,0,0,2.682-2.229h7.984v2.372H11.505a1.054,1.054,0,0,0,0,2.085h3.918v2.372H.9a1.054,1.054,0,0,0,0,2.085H15.423v2.372H11.505a1.054,1.054,0,0,0,0,2.085h3.918v2.372H12.7a3.531,3.531,0,0,0-2.683,1.284l-5.932,6.857a2.511,2.511,0,0,0-1.259-.341,2.634,2.634,0,0,0-2,.958,3.642,3.642,0,0,0,0,4.626,2.634,2.634,0,0,0,2,.958,2.634,2.634,0,0,0,2-.958,3.523,3.523,0,0,0,.829-2.313,3.678,3.678,0,0,0-.295-1.456l5.932-6.857a1.853,1.853,0,0,1,1.407-.674h2.72v2.3c0,3.033,2.134,5.5,4.758,5.5h1.99v9.229a3.271,3.271,0,0,0-1.928,3.1,3.078,3.078,0,0,0,2.83,3.271,3.078,3.078,0,0,0,2.83-3.271,3.272,3.272,0,0,0-1.928-3.1v-9.229h2.052v4.529a.911.911,0,1,0,1.8,0v-4.529h2.052v16.786a.911.911,0,1,0,1.8,0V184.478h2.052v4.529a.911.911,0,1,0,1.8,0v-4.529h2.052v3.144a4.723,4.723,0,0,0,1.111,3.1l5.934,6.859a3.664,3.664,0,0,0,.532,3.766,2.571,2.571,0,0,0,4,0A3.646,3.646,0,0,0,49.173,196.722ZM4.758,158.992a1.2,1.2,0,0,1,0-2.372,1.2,1.2,0,0,1,0,2.372Zm-1.2,27.51a.931.931,0,0,1-1.451,0,1.32,1.32,0,0,1,0-1.677.931.931,0,0,1,1.451,0,1.32,1.32,0,0,1,0,1.677Zm20.544,10.3a1.037,1.037,0,1,1-1.026-1.186A1.116,1.116,0,0,1,24.1,196.807Zm23.8,3.067a.932.932,0,0,1-1.451,0,1.322,1.322,0,0,1,0-1.677.932.932,0,0,1,1.451,0A1.322,1.322,0,0,1,47.9,199.874Z" transform="translate(0 -128.832)" fill="#71757d"/><path d="M197.306,176.428a4.451,4.451,0,0,0-3.655-4.072,2.8,2.8,0,0,0,.1-.722c0-1.816-1.773-3.294-3.951-3.294a4.314,4.314,0,0,0-2.965,1.12,4.315,4.315,0,0,0-2.965-1.12c-2.179,0-3.951,1.478-3.951,3.294a2.8,2.8,0,0,0,.1.722,4.451,4.451,0,0,0-3.655,4.072,3.736,3.736,0,0,0,1.039,2.553,4.188,4.188,0,0,0-1.039,2.72,4.544,4.544,0,0,0,2.372,3.833v0c0,2.081,2.039,3.773,4.544,3.773a4.924,4.924,0,0,0,3.558-1.43,4.925,4.925,0,0,0,3.558,1.43c2.412,0,4.389-1.568,4.535-3.54a4.156,4.156,0,0,0,2.381-3.588,3.88,3.88,0,0,0-1.372-2.876A3.88,3.88,0,0,0,197.306,176.428Zm-3.491,3.669a2.394,2.394,0,0,1,1.518,2.083,2.216,2.216,0,0,1-.869,1.687,4.368,4.368,0,0,0-2.593-1.9,1.008,1.008,0,0,0-1.237.587.884.884,0,0,0,.645,1.125,2.089,2.089,0,0,1,1.681,1.857,2.66,2.66,0,0,1-5.143,0v-5.753a2.337,2.337,0,0,1,2.572-1.979.9.9,0,1,0,0-1.794,5.183,5.183,0,0,0-2.572.665v-1.146a.991.991,0,0,0-1.973,0v4.98a4.929,4.929,0,0,0-1.09-.459,1.008,1.008,0,0,0-1.237.587.884.884,0,0,0,.645,1.125,2.089,2.089,0,0,1,1.681,1.857v1.917a2.66,2.66,0,0,1-5.143,0,1.735,1.735,0,0,1,.614-1.28.841.841,0,0,0,0-1.269,1.057,1.057,0,0,0-1.395,0,3.9,3.9,0,0,0-.609.7,2.635,2.635,0,0,1-.986-1.978,3.168,3.168,0,0,1,2.789-2.839.9.9,0,0,0,.741-1.075.993.993,0,0,0-1.182-.674,6.358,6.358,0,0,0-1.809.67,2.048,2.048,0,0,1-.538-1.356c0-1.349,1.407-2.448,3.141-2.458h.026a1.043,1.043,0,0,0,.637-.212.841.841,0,0,0,.2-1.157c-.007-.011-.014-.022-.022-.033l-.013-.016c-.015-.019-.031-.039-.048-.057v0a1.268,1.268,0,0,1-.361-.86,2.055,2.055,0,0,1,3.957,0,.991.991,0,0,0,1.973,0,2.055,2.055,0,0,1,3.957,0,1.17,1.17,0,0,1-.148.565,5.925,5.925,0,0,0-1.619.369.869.869,0,0,0-.526,1.175,1.024,1.024,0,0,0,1.292.478,3.869,3.869,0,0,1,1.364-.251h.055c1.734.01,3.14,1.109,3.14,2.458a2.4,2.4,0,0,1-1.518,2.083.861.861,0,0,0,0,1.587Z" transform="translate(-157.082 -139.471)" fill="#71757d"/></g><text transform="translate(8322.038 3768.118)" fill="#71757d" font-size="15" font-family="Helvetica"><tspan x="0" y="0">Brain</tspan></text></g></svg>