<svg xmlns="http://www.w3.org/2000/svg" width="46.401" height="64.551" viewBox="0 0 46.401 64.551">
  <g id="Group_8703" data-name="Group 8703" transform="translate(-800.755 -317.397)">
    <g id="Intersection_4" data-name="Intersection 4" transform="translate(801.374 331.188)">
      <path id="Path_7858" data-name="Path 7858" d="M841.977,416.228h-13.06l-1.676,1.286-1.789-1.286H813.363l-3.949-3.874a4.628,4.628,0,0,0-2.235,5.216,4.485,4.485,0,0,0,2.608,2.608l-4.769,28.782a44.563,44.563,0,0,0,23.175,13.562,36.069,36.069,0,0,0,21.982-12.593c-1.539-7.378-3.08-22.3-4.62-29.676a4.339,4.339,0,0,0,2.682-2.385,4.461,4.461,0,0,0-1.863-5.141Z" transform="translate(-805.017 -412.354)" fill="none"/>
    </g>
    <g id="Group_8695" data-name="Group 8695" transform="translate(800.755 330.456)">
      <g id="Group_29" data-name="Group 29" transform="translate(0 0)">
        <g id="Group_16" data-name="Group 16">
          <g id="Path_7" data-name="Path 7">
            <path id="Path_7859" data-name="Path 7859" d="M824.53,458.807l-.111-.025a44.922,44.922,0,0,1-23.476-13.739l-.188-.208,4.741-28.616a4.875,4.875,0,0,1-2.514-2.776,5.23,5.23,0,0,1,2.485-5.891l.386-.236,4.1,4.025H822l1.59,1.143,1.491-1.143h13.054l4.575-3.644.355.245a5.06,5.06,0,0,1,2.074,5.829,4.709,4.709,0,0,1-2.556,2.542c.742,3.709,1.492,9.139,2.219,14.4.755,5.469,1.537,11.125,2.3,14.793l.057.274-.178.215a36.645,36.645,0,0,1-22.336,12.8ZM801.993,444.47a43.758,43.758,0,0,0,22.574,13.153,35.483,35.483,0,0,0,21.338-12.159c-.755-3.709-1.519-9.241-2.259-14.6-.756-5.474-1.538-11.135-2.3-14.805l-.107-.513.5-.159a3.77,3.77,0,0,0,2.316-2.04,3.823,3.823,0,0,0-1.312-4.2l-4.2,3.347H825.471l-1.863,1.428-1.986-1.428h-12.14l-3.78-3.708a3.987,3.987,0,0,0-1.615,4.291,3.926,3.926,0,0,0,2.265,2.245l.441.171Z" transform="translate(-800.755 -407.315)" fill="#fff"/>
          </g>
          <g id="Path_8" data-name="Path 8" transform="translate(10.842 8.702)">
            <path id="Path_7860" data-name="Path 7860" d="M875.405,467.231l3.916,1.028,7.327.544-4.11,2.176-4.231-.5Z" transform="translate(-875.405 -467.231)" fill="#fff"/>
          </g>
          <g id="Path_9" data-name="Path 9" transform="translate(24.259 8.702)">
            <path id="Path_7861" data-name="Path 7861" d="M979.03,467.231l-3.009,1.028-2.108.139.29,1.632L972.92,468.5l-5.132.3,4.11,2.176,4.231-.5Z" transform="translate(-967.788 -467.231)" fill="#fff"/>
          </g>
          <g id="Group_3" data-name="Group 3" transform="translate(19.099 12.45)">
            <g id="Path_10" data-name="Path 10" transform="translate(0.894)">
              <path id="Path_7862" data-name="Path 7862" d="M938.414,493.035h6.409l-3.2,4.322Z" transform="translate(-938.414 -493.035)" fill="#fff"/>
            </g>
            <g id="Path_11" data-name="Path 11" transform="translate(5.98)">
              <path id="Path_7863" data-name="Path 7863" d="M973.43,493.035h1.857l.087,2.623Z" transform="translate(-973.43 -493.035)" fill="#fff"/>
            </g>
            <g id="Path_12" data-name="Path 12">
              <path id="Path_7864" data-name="Path 7864" d="M934.2,493.035h-1.858l-.087,2.623Z" transform="translate(-932.258 -493.035)" fill="#fff"/>
            </g>
          </g>
        </g>
        <g id="Path_51" data-name="Path 51" transform="translate(3.561 16.246)">
          <path id="Path_7865" data-name="Path 7865" d="M826.35,519.175a45.712,45.712,0,0,0,5.593,7.634,88.648,88.648,0,0,0,8.378,7.729L825.276,522.8Z" transform="translate(-825.276 -519.175)" fill="#fff"/>
        </g>
      </g>
    </g>
    <g id="Group_8694" data-name="Group 8694" transform="translate(807.106 317.397)">
      <g id="Exclusion_3" data-name="Exclusion 3" transform="translate(6.348 0.065)">
        <path id="Path_7866" data-name="Path 7866" d="M894.022,334.665h-4.228l-1.6-13,4.44-3.816,1.39,16.819Zm-2.816-13.22-1.039.87,1.346,10.512.731-.1Z" transform="translate(-888.192 -317.845)" fill="#dbb66f"/>
      </g>
      <g id="Exclusion_4" data-name="Exclusion 4" transform="translate(11.684 0)">
        <path id="Path_7867" data-name="Path 7867" d="M928.232,334.247h-2.363l-.939-16.85,4.94,3.295v12.084l-1.638,1.471Zm-1.323-13.492h0l.543,11.314h.738l-.131-10.6-1.151-.717Z" transform="translate(-924.93 -317.397)" fill="#dbb66f"/>
      </g>
      <g id="Path_45" data-name="Path 45" transform="translate(21.83 0)">
        <path id="Path_7868" data-name="Path 7868" d="M996.3,334.222h-1.511l1.089-16.825,4.46,4.15-1.454,12.675h-1.6l1.134-12.506-.988-.791Z" transform="translate(-994.787 -317.397)" fill="#dbb66f"/>
      </g>
      <g id="Path_46" data-name="Path 46" transform="translate(17.322 0.248)">
        <path id="Path_7869" data-name="Path 7869" d="M963.747,322.189l4.624-3.083-1.885,16.627h-1.652Z" transform="translate(-963.747 -319.106)" fill="#dbb66f"/>
      </g>
      <g id="Path_50" data-name="Path 50" transform="translate(0 0.542)">
        <path id="Path_7870" data-name="Path 7870" d="M847.746,337.421l-3.265-16.294,2.275,1.064,1.872,11.12-.294-10.533,1.358.7.253,9.835,1.912,4.11h-1.394l-.771-2.239-.33.22.33,2.019Z" transform="translate(-844.481 -321.127)" fill="#dbb66f"/>
      </g>
      <g id="Path_39" data-name="Path 39" transform="translate(26.617 0.578)">
        <path id="Path_7871" data-name="Path 7871" d="M1031.026,323.141l-1.75.96-1.525,13.522h1.92l.226-2.089h.367l.19,2.089h1.43l-.858-3.882,3.431-12.365-1.963,1.031-2.823,10.981Z" transform="translate(-1027.751 -321.376)" fill="#dbb66f"/>
      </g>
    </g>
  </g>
</svg>
