<svg xmlns="http://www.w3.org/2000/svg" width="46.262" height="84.28" viewBox="0 0 46.262 84.28"><g transform="translate(-882 -45.72)"><g transform="translate(857.331 -19)"><path d="M103.782,30.57c2.923,0,9.795-4.5,9.795-15.285,0-8.442-.89-15.285-9.795-15.285s-9.795,6.843-9.795,15.285C93.987,26.069,100.859,30.57,103.782,30.57ZM95.451,12.734a5.305,5.305,0,0,1,5.377-3.583s1.908,5.921,11.273,3.262c.038.946.05,1.911.05,2.872,0,5.271-1.819,8.538-3.345,10.349-1.923,2.283-4.058,3.112-5.024,3.112s-3.1-.829-5.024-3.112c-1.526-1.812-3.345-5.078-3.345-10.349C95.413,14.432,95.423,13.577,95.451,12.734Z" transform="translate(-56 64.72)" fill="#fff"/><path d="M70.92,209.513c-.636-5-1.945-11.432-4.57-13.719-1.793-1.562-8.047-5.785-10.718-7.589l-.046-.031a.728.728,0,0,0-.95.105,10.566,10.566,0,0,1-4.555,2.781.97.97,0,0,0-.626.685L47.8,197.253l-1.653-5.508a.97.97,0,0,0-.626-.685,10.566,10.566,0,0,1-4.555-2.781.728.728,0,0,0-.95-.105c-2.639,1.782-8.97,6.092-10.757,7.613-3.022,2.573-4.344,11.885-4.578,13.726a1.382,1.382,0,0,0,.039.544c.108.386,2.882,9.451,23.081,9.451s22.973-9.065,23.081-9.451A1.379,1.379,0,0,0,70.92,209.513Zm-9.308-3.049-3.954,1.557L53.7,206.464v-2.688h7.907Z" transform="translate(0 -95.074)" fill="#fff"/></g><text transform="translate(894 127)" fill="#fff" font-size="15" font-family="Helvetica"><tspan x="0" y="0">ME</tspan></text></g></svg>