<svg xmlns="http://www.w3.org/2000/svg" width="28.405" height="28.405" viewBox="0 0 28.405 28.405"><rect width="28.405" height="28.405" rx="14" transform="translate(0 0)" fill="#3a414c"/><g transform="translate(9.88 8.645)"><g transform="translate(0 6.175)" fill="none"><path d="M4.635,0A4.635,4.635,0,0,1,9.269,4.635c0,2.56-9.269,2.56-9.269,0A4.635,4.635,0,0,1,4.635,0Z" stroke="none"/><path d="M 4.634640693664551 1.000000953674316 C 2.630490779876709 1.000000953674316 1.000000953674316 2.630491256713867 1.000000953674316 4.634640693664551 C 1.000000953674316 4.662060737609863 1.147980690002441 4.898221015930176 1.793840885162354 5.136021137237549 C 2.515930652618408 5.401890754699707 3.551360607147217 5.554370880126953 4.634640693664551 5.554370880126953 C 5.717920780181885 5.554370880126953 6.753350734710693 5.401890754699707 7.475440979003906 5.136021137237549 C 8.12130069732666 4.898221015930176 8.269280433654785 4.662060737609863 8.269280433654785 4.634640693664551 C 8.269280433654785 2.630491256713867 6.638790607452393 1.000000953674316 4.634640693664551 1.000000953674316 M 4.634640693664551 9.5367431640625e-07 C 7.194280624389648 9.5367431640625e-07 9.269280433654785 2.075001239776611 9.269280433654785 4.634640693664551 C 9.269280433654785 5.914461135864258 6.951960563659668 6.554370880126953 4.634640693664551 6.554370880126953 C 2.317320823669434 6.554370880126953 9.5367431640625e-07 5.914461135864258 9.5367431640625e-07 4.634640693664551 C 9.5367431640625e-07 2.075001239776611 2.075000762939453 9.5367431640625e-07 4.634640693664551 9.5367431640625e-07 Z" stroke="none" fill="#fff"/></g><g transform="translate(1.235)" fill="none" stroke="#fff" stroke-width="1"><circle cx="3.4" cy="3.4" r="3.4" stroke="none"/><circle cx="3.4" cy="3.4" r="2.9" fill="none"/></g></g></svg>