<svg xmlns="http://www.w3.org/2000/svg" width="53" height="72.103" viewBox="0 0 53 72.103"><g transform="translate(-1039.038 -459.015)"><text transform="translate(1039.038 527.118)" fill="#71757d" font-size="15" font-family="Helvetica"><tspan x="0" y="0">Reports</tspan></text><g transform="translate(1041 415.65)"><path d="M35.291,23.783a4.187,4.187,0,0,0,2.97-1.254l4.234,2.2a4.534,4.534,0,0,0-.053.54,4.294,4.294,0,1,0,8.581,0,4.548,4.548,0,0,0-.43-1.91l5.743-5.969a4.108,4.108,0,0,0,1.838.447,4.382,4.382,0,0,0,4.291-4.459,4.549,4.549,0,0,0-.214-1.321l4.99-3.889a4.149,4.149,0,0,0,2.375.75,4.382,4.382,0,0,0,4.291-4.459,4.294,4.294,0,1,0-8.581,0A4.55,4.55,0,0,0,65.54,5.78L60.55,9.669a4.149,4.149,0,0,0-2.375-.75,4.382,4.382,0,0,0-4.291,4.459,4.548,4.548,0,0,0,.43,1.91l-5.743,5.969a4.108,4.108,0,0,0-1.838-.447,4.187,4.187,0,0,0-2.97,1.254l-4.234-2.2a4.532,4.532,0,0,0,.053-.54,4.294,4.294,0,1,0-4.291,4.459Zm0,0" transform="translate(-28 43.365)" fill="#71757d"/><path d="M48.331,185.156H46.775V151.588A1.527,1.527,0,0,0,45.317,150H39.482a1.527,1.527,0,0,0-1.459,1.588v33.568H35.106V161.119a1.527,1.527,0,0,0-1.459-1.588H27.812a1.527,1.527,0,0,0-1.459,1.588v24.037H23.436v-11.33a1.527,1.527,0,0,0-1.459-1.588H16.143a1.527,1.527,0,0,0-1.459,1.588v11.33H11.767V167.472a1.527,1.527,0,0,0-1.459-1.588H4.473a1.527,1.527,0,0,0-1.459,1.588v17.684H1.459a1.594,1.594,0,0,0,0,3.177H48.331a1.594,1.594,0,0,0,0-3.177Zm0,0" transform="translate(0 -95.177)" fill="#71757d"/></g></g></svg>