<svg xmlns="http://www.w3.org/2000/svg" width="66.454" height="72.319" viewBox="0 0 66.454 72.319"><g transform="translate(-119.795 -194.681)"><text transform="translate(127 264)" fill="#fff" font-size="13" font-family="Helvetica"><tspan x="0" y="0">MoDoc</tspan></text><g transform="translate(-21.552 44.919)"><path d="M207.8,222.109a11.324,11.324,0,0,1-4.351,4.585c-2.855,1.49-7.071,1.375-7.071,1.375-3.7,15.939-26.043,24.051-41.555,20.066s-13.378-22.485-13.378-22.485h45.4c3.747,0,4.032-1.139,4.032-1.139-3.321-7.875,1.8-12.1,1.8-12.1,3.985.713,4.98,7.543,4.98,7.543a12.3,12.3,0,0,1,5.325,0A19.848,19.848,0,0,1,207.8,222.109Z" transform="translate(0 -53.877)" fill="#fff"/><rect width="6.357" height="5.787" transform="translate(146.284 164.563)" fill="#fff"/><rect width="6.357" height="5.787" transform="translate(154.273 164.563)" fill="#fff"/><rect width="6.357" height="5.787" transform="translate(178.238 164.563)" fill="#fff"/><rect width="6.357" height="5.787" transform="translate(170.25 164.563)" fill="#fff"/><rect width="6.357" height="5.787" transform="translate(170.25 149.763)" fill="#fff"/><rect width="6.357" height="5.787" transform="translate(162.261 164.563)" fill="#fff"/><rect width="6.357" height="5.787" transform="translate(154.273 157.162)" fill="#fff"/><rect width="6.357" height="5.787" transform="translate(170.25 157.162)" fill="#fff"/><rect width="6.357" height="5.787" transform="translate(162.261 157.162)" fill="#fff"/></g></g></svg>