<svg xmlns="http://www.w3.org/2000/svg" width="315.405" height="28.405" viewBox="0 0 315.405 28.405"><g transform="translate(-375 -17.29)"><rect width="315.405" height="28.405" rx="14" transform="translate(375 17.29)" fill="#3a414c"/><g transform="translate(385 23)" fill="none"><path d="M5.5,0A5.5,5.5,0,0,1,11,5.5C11,8.538,5.5,16,5.5,16S0,8.538,0,5.5A5.5,5.5,0,0,1,5.5,0Z" stroke="none"/><path d="M 5.5 1.000001907348633 C 3.01869010925293 1.000001907348633 1 3.018692016601562 1 5.500001907348633 C 1 7.228459358215332 3.501176834106445 11.40067481994629 5.5 14.27882957458496 C 7.498823165893555 11.40067481994629 10 7.228459358215332 10 5.500001907348633 C 10 3.018692016601562 7.98130989074707 1.000001907348633 5.5 1.000001907348633 M 5.5 1.9073486328125e-06 C 8.537569999694824 1.9073486328125e-06 11 2.462431907653809 11 5.500001907348633 C 11 8.537561416625977 5.5 15.99902153015137 5.5 15.99902153015137 C 5.5 15.99902153015137 0 8.537561416625977 0 5.500001907348633 C 0 2.462431907653809 2.462430000305176 1.9073486328125e-06 5.5 1.9073486328125e-06 Z" stroke="none" fill="#fff"/></g><g transform="translate(388 26)" fill="none" stroke="#fff" stroke-width="1"><circle cx="2.5" cy="2.5" r="2.5" stroke="none"/><circle cx="2.5" cy="2.5" r="2" fill="none"/></g></g></svg>