<svg xmlns="http://www.w3.org/2000/svg" width="52.924" height="70.58" viewBox="0 0 52.924 70.58"><g transform="translate(-1037.538 -460.538)"><text transform="translate(1039.038 527.118)" fill="#71757d" font-size="15" font-family="Helvetica"><tspan x="0" y="0">Setting</tspan></text><path d="M1248.25,488.871l-5.23-.884a1.653,1.653,0,0,1-1.345-1.233,19.933,19.933,0,0,0-2.167-5.218,1.682,1.682,0,0,1,.075-1.831l3.076-4.321a.338.338,0,0,0-.037-.423l-3.711-3.711a.333.333,0,0,0-.237-.1.371.371,0,0,0-.187.062l-4.3,3.088a1.684,1.684,0,0,1-1.831.075,20.212,20.212,0,0,0-5.342-2.192,1.684,1.684,0,0,1-1.245-1.357l-.872-5.193a.323.323,0,0,0-.324-.274h-5.243a.323.323,0,0,0-.324.274l-.9,5.267a1.705,1.705,0,0,1-1.233,1.345,19.748,19.748,0,0,0-5.205,2.192,1.7,1.7,0,0,1-1.843-.075l-4.3-3.063a.306.306,0,0,0-.187-.062.317.317,0,0,0-.237.1l-3.711,3.711a.339.339,0,0,0-.037.423l3.1,4.358a1.663,1.663,0,0,1,.087,1.818,19.913,19.913,0,0,0-2.129,5.23,1.684,1.684,0,0,1-1.357,1.245l-5.193.872a.322.322,0,0,0-.274.324v5.243a.322.322,0,0,0,.274.324l5.267.9a1.706,1.706,0,0,1,1.345,1.233,19.745,19.745,0,0,0,2.192,5.205,1.7,1.7,0,0,1-.075,1.843l-3.063,4.3a.338.338,0,0,0,.037.423l3.711,3.711a.334.334,0,0,0,.237.1.371.371,0,0,0,.187-.062l4.358-3.1a1.64,1.64,0,0,1,.971-.311,1.724,1.724,0,0,1,.847.224,20.7,20.7,0,0,0,5.106,2.092,1.672,1.672,0,0,1,1.233,1.345l.872,5.23a.323.323,0,0,0,.324.274h5.242a.323.323,0,0,0,.324-.274l.884-5.23a1.653,1.653,0,0,1,1.233-1.345,19.936,19.936,0,0,0,5.218-2.167,1.682,1.682,0,0,1,1.83.075l4.321,3.076a.306.306,0,0,0,.187.062.317.317,0,0,0,.237-.1l3.711-3.711a.339.339,0,0,0,.037-.423l-3.076-4.334a1.684,1.684,0,0,1-.075-1.831,19.933,19.933,0,0,0,2.167-5.218,1.672,1.672,0,0,1,1.345-1.233l5.23-.872a.322.322,0,0,0,.274-.324h.012v-5.243A.322.322,0,0,0,1248.25,488.871Zm-26.2,12.44a9.5,9.5,0,1,1,9.5-9.5A9.508,9.508,0,0,1,1222.05,501.311Z" transform="translate(-158.062 -4.822)" fill="#71757d"/></g></svg>