<svg xmlns="http://www.w3.org/2000/svg" width="74" height="92" viewBox="0 0 74 92"><g transform="translate(-272 -117)"><text transform="translate(272 204)" fill="#d6d6d6" font-size="19" font-family="AppleSymbols, Apple Symbols"><tspan x="0" y="0">Add plugin</tspan></text><path d="M61.667,33.333h-5V20A6.686,6.686,0,0,0,50,13.333H36.667v-5A8.333,8.333,0,1,0,20,8.333v5H6.667A6.686,6.686,0,0,0,0,20V32.667H5a9,9,0,0,1,0,18H0V63.333A6.686,6.686,0,0,0,6.667,70H19.333V65a9,9,0,1,1,18,0v5H50a6.686,6.686,0,0,0,6.667-6.667V50h5a8.333,8.333,0,0,0,0-16.667Z" transform="translate(276 117)" fill="#d6d6d6"/></g></svg>