<svg xmlns="http://www.w3.org/2000/svg" width="28.405" height="28.405" viewBox="0 0 28.405 28.405"><g transform="translate(-91.39 -17.29)"><rect width="28.405" height="28.405" rx="14" transform="translate(91.39 17.29)" fill="#3a414c"/><path d="M66.964,12.74a2.537,2.537,0,0,1-.824-1.029A11.025,11.025,0,0,1,65.28,7c0-.006,0-.012,0-.018a4.545,4.545,0,0,0-2.916-4.12V1.783A1.87,1.87,0,0,0,60.422,0h-.161a1.87,1.87,0,0,0-1.942,1.783V2.867A4.543,4.543,0,0,0,55.4,7a11.025,11.025,0,0,1-.859,4.706,2.537,2.537,0,0,1-.824,1.029.446.446,0,0,0-.273.519.514.514,0,0,0,.513.367h3.749a2.646,2.646,0,0,0,5.267,0h3.749a.514.514,0,0,0,.513-.367A.446.446,0,0,0,66.964,12.74ZM59.342,1.783A.885.885,0,0,1,60.261.94h.161a.885.885,0,0,1,.919.844v.779a5.394,5.394,0,0,0-2,0V1.783Zm1,13.287a1.555,1.555,0,0,1-1.61-1.444h3.221A1.555,1.555,0,0,1,60.342,15.07Zm2.06-2.384H55.125a4.824,4.824,0,0,0,.268-.431A11.021,11.021,0,0,0,56.426,7a3.929,3.929,0,0,1,7.831,0c0,.006,0,.012,0,.017a11,11,0,0,0,1.033,5.231,4.829,4.829,0,0,0,.268.431Z" transform="translate(45.565 23.206)" fill="#fff"/></g></svg>