<svg xmlns="http://www.w3.org/2000/svg" width="121" height="71.616" viewBox="0 0 121 71.616"><g transform="translate(-1011 -703.629)"><g transform="translate(1048.499 703.629)" opacity="0.31"><path d="M3140.181-185.938l-2.542-8.258L3141-211.028l.575,17.878Z" transform="translate(-3137.639 231.306)" fill="#fff"/><path d="M3264.638-338.837l-2.477-13.774L3265-387.62l2.375,33.969Z" transform="translate(-3247.863 387.62)" fill="#fff"/><path d="M3340.045-263.524l-2.893-14.7,3.117-28.647,1.992,30.124Z" transform="translate(-3314.243 316.14)" fill="#fff"/><path d="M3199.045-263.524l-2.893-14.7,3.116-28.647,1.993,30.124Z" transform="translate(-3189.433 316.14)" fill="#fff"/><path d="M3407.309-186.54l3.458-16.566,1.022,16.8-2.209,8.853Z" transform="translate(-3376.343 224.294)" fill="#fff"/></g><text transform="translate(1011 772.245)" fill="#6a6f76" font-size="8" font-family="LemonMilkbold, "Lemon/Milk""><tspan x="0" y="0">POwerd by hacktor team</tspan></text></g></svg>