<svg xmlns="http://www.w3.org/2000/svg" width="54.924" height="72.58" viewBox="0 0 54.924 72.58"><g transform="translate(-1037.538 -324.538)"><text transform="translate(1038.038 393.118)" fill="#71757d" font-size="15" font-family="Helvetica"><tspan x="0" y="0">Reprots</tspan></text><g transform="translate(333.538 40.538)"><path d="M739.827,309.746a4.8,4.8,0,0,0,3.341-1.357l4.763,2.381a4.719,4.719,0,0,0-.059.585,4.827,4.827,0,1,0,9.655,0,4.769,4.769,0,0,0-.484-2.068l6.462-6.462a4.768,4.768,0,0,0,2.068.484,4.833,4.833,0,0,0,4.827-4.827,4.755,4.755,0,0,0-.241-1.43l5.614-4.21a5.028,5.028,0,1,0-1.914-2.586l-5.614,4.21a4.806,4.806,0,0,0-7.015,6.083l-6.462,6.462a4.743,4.743,0,0,0-5.409.873L744.6,305.5a4.719,4.719,0,0,0,.059-.585,4.827,4.827,0,1,0-4.827,4.827Zm0,0" transform="translate(-27.675)" fill="#71757d"/><path d="M757.315,469.615H755.6V435.609A1.608,1.608,0,0,0,753.989,434h-6.436a1.608,1.608,0,0,0-1.609,1.609v34.006h-3.218V445.264a1.608,1.608,0,0,0-1.609-1.609H734.68a1.608,1.608,0,0,0-1.609,1.609v24.351h-3.218V458.136a1.608,1.608,0,0,0-1.609-1.609h-6.436a1.608,1.608,0,0,0-1.609,1.609v11.478H716.98V451.7a1.608,1.608,0,0,0-1.609-1.609h-6.436a1.608,1.608,0,0,0-1.609,1.609v17.915h-1.716a1.609,1.609,0,1,0,0,3.218h51.706a1.609,1.609,0,1,0,0-3.218Zm0,0" transform="translate(0 -133.909)" fill="#71757d"/></g></g></svg>