<svg xmlns="http://www.w3.org/2000/svg" width="58" height="74" viewBox="0 0 58 74"><g transform="translate(-878 -161)"><path d="M49.845,22.224a1.628,1.628,0,0,0-1.607-1.231,5.52,5.52,0,0,1-3.778-9.607A1.389,1.389,0,0,0,44.611,9.5a24.75,24.75,0,0,0-3.961-4,1.392,1.392,0,0,0-1.9.154,5.762,5.762,0,0,1-6.235,1.4,5.553,5.553,0,0,1-3.377-5.428A1.387,1.387,0,0,0,27.911.166,24.949,24.949,0,0,0,22.286.151a1.392,1.392,0,0,0-1.238,1.431,5.563,5.563,0,0,1-3.423,5.334,5.778,5.778,0,0,1-6.189-1.41A1.393,1.393,0,0,0,9.55,5.348a24.853,24.853,0,0,0-4.044,4,1.391,1.391,0,0,0,.149,1.9,5.54,5.54,0,0,1,1.4,6.238,5.779,5.779,0,0,1-5.44,3.379A1.36,1.36,0,0,0,.169,22.091a25.061,25.061,0,0,0-.011,5.685A1.655,1.655,0,0,0,1.8,29.006a5.484,5.484,0,0,1,5.144,3.425,5.562,5.562,0,0,1-1.4,6.183A1.388,1.388,0,0,0,5.392,40.5a24.837,24.837,0,0,0,3.954,4,1.39,1.39,0,0,0,1.9-.151,5.754,5.754,0,0,1,6.232-1.4,5.545,5.545,0,0,1,3.383,5.426,1.388,1.388,0,0,0,1.226,1.461,24.893,24.893,0,0,0,5.625.015,1.391,1.391,0,0,0,1.237-1.432,5.557,5.557,0,0,1,3.421-5.331,5.77,5.77,0,0,1,6.191,1.408,1.4,1.4,0,0,0,1.887.158,24.885,24.885,0,0,0,4.044-4,1.389,1.389,0,0,0-.149-1.9,5.539,5.539,0,0,1-1.4-6.236,5.6,5.6,0,0,1,5.114-3.389l.309.008a1.392,1.392,0,0,0,1.463-1.226A24.951,24.951,0,0,0,49.845,22.224ZM25,39.412a14.412,14.412,0,1,1,12.374-7.023l-6.311-6.311A8.841,8.841,0,0,0,20.6,14.1a1,1,0,0,0-.692.7.977.977,0,0,0,.277.955s3.116,3.14,4.158,4.182a.646.646,0,0,1,.094.464l-.01.069a19.925,19.925,0,0,1-.475,3.05l-.067.064-.069.071a19.641,19.641,0,0,1-3.1.481V24.13l-.052.013a.454.454,0,0,1-.05,0,.666.666,0,0,1-.479-.2c-1.085-1.085-4.079-4.057-4.079-4.057a1.018,1.018,0,0,0-.728-.324.989.989,0,0,0-.932.753A8.842,8.842,0,0,0,26.378,30.765l6.38,6.38A14.34,14.34,0,0,1,25,39.412Z" transform="translate(881.998 161.001)" fill="#fff"/><text transform="translate(878 232)" fill="#fff" font-size="15" font-family="Helvetica"><tspan x="0" y="0">Services</tspan></text></g></svg>