<svg xmlns="http://www.w3.org/2000/svg" width="50" height="72.583" viewBox="0 0 50 72.583"><g transform="translate(-1043.03 -193.535)"><text transform="translate(1044.038 262.118)" fill="#fff" font-size="15" font-family="Helvetica"><tspan x="0" y="0">Setting</tspan></text><g transform="translate(1045.999 198.263)"><path d="M3.229,23.058A12.558,12.558,0,0,0,4.3,25.68L3.008,27.361a1.412,1.412,0,0,0,.1,1.828l2.226,2.3a1.3,1.3,0,0,0,1.772.1l1.62-1.322a11.578,11.578,0,0,0,2.643,1.153l.243,2.149a1.35,1.35,0,0,0,1.324,1.219h3.149a1.35,1.35,0,0,0,1.324-1.219l.232-2.073a11.7,11.7,0,0,0,2.833-1.18l1.567,1.278a1.308,1.308,0,0,0,1.772-.1l2.226-2.3a1.405,1.405,0,0,0,.1-1.828l-1.219-1.594A12.2,12.2,0,0,0,26.087,22.9l1.878-.223a1.362,1.362,0,0,0,1.182-1.365V18.064A1.362,1.362,0,0,0,27.965,16.7l-1.852-.223A12.283,12.283,0,0,0,25,13.636l1.139-1.485a1.412,1.412,0,0,0-.1-1.828l-2.221-2.29a1.3,1.3,0,0,0-1.772-.1l-1.4,1.142a11.55,11.55,0,0,0-2.9-1.251l-.211-1.866a1.35,1.35,0,0,0-1.324-1.219H13.063a1.35,1.35,0,0,0-1.324,1.219l-.211,1.866a11.5,11.5,0,0,0-2.97,1.295L7.107,7.93a1.308,1.308,0,0,0-1.772.1l-2.226,2.3a1.405,1.405,0,0,0-.1,1.828L4.221,13.74a12.054,12.054,0,0,0-1.1,2.867l-1.941.228A1.362,1.362,0,0,0,0,18.2v3.248a1.362,1.362,0,0,0,1.182,1.365Zm11.41-8.785a5.372,5.372,0,0,1,0,10.738,5.372,5.372,0,0,1,0-10.738Z" transform="translate(-2.97 -9.465)" fill="#fff"/><path d="M496.8,291.071l-1.526-1.287a1.208,1.208,0,0,0-1.608.044l-.843.788a8.719,8.719,0,0,0-2.247-.725l-.237-1.161a1.218,1.218,0,0,0-1.288-.967l-1.99.169a1.212,1.212,0,0,0-1.109,1.166l-.039,1.18a8.74,8.74,0,0,0-2.146,1.127l-1.007-.667a1.211,1.211,0,0,0-1.593.227l-1.288,1.533a1.2,1.2,0,0,0,.043,1.606l.881.938a9,9,0,0,0-.649,2.148l-1.259.256a1.217,1.217,0,0,0-.969,1.287l.169,1.988a1.212,1.212,0,0,0,1.167,1.108l1.361.043a8.876,8.876,0,0,0,.964,1.838l-.76,1.146a1.207,1.207,0,0,0,.228,1.591l1.526,1.287a1.208,1.208,0,0,0,1.608-.044l1-.934a8.755,8.755,0,0,0,2.049.668l.276,1.364a1.218,1.218,0,0,0,1.288.967l1.99-.169a1.212,1.212,0,0,0,1.109-1.166l.044-1.335a8.958,8.958,0,0,0,2.049-1.035l1.1.726a1.211,1.211,0,0,0,1.593-.227l1.288-1.524a1.2,1.2,0,0,0-.044-1.606l-.886-.938a8.7,8.7,0,0,0,.7-2.157l1.211-.247a1.217,1.217,0,0,0,.969-1.287l-.169-1.988a1.212,1.212,0,0,0-1.167-1.108l-1.216-.039a8.778,8.778,0,0,0-1.012-1.993l.664-1A1.2,1.2,0,0,0,496.8,291.071Zm-7.5,11.492a3.907,3.907,0,1,1,3.569-4.222A3.912,3.912,0,0,1,489.3,302.563Z" transform="translate(-452.89 -279.268)" fill="#fff"/><path d="M183.528,566.637a1.355,1.355,0,0,0-1.215,1.334l-.016,1.372a1.352,1.352,0,0,0,1.182,1.361l1.009.13a7.827,7.827,0,0,0,.716,1.752l-.651.8a1.353,1.353,0,0,0,.081,1.8l.96.982a1.354,1.354,0,0,0,1.8.125l.808-.624a7.915,7.915,0,0,0,1.8.786l.108,1.042a1.355,1.355,0,0,0,1.334,1.215l1.372.016a1.352,1.352,0,0,0,1.361-1.182l.125-.987a8.144,8.144,0,0,0,1.952-.76l.759.613a1.352,1.352,0,0,0,1.8-.081l.982-.96a1.354,1.354,0,0,0,.125-1.8l-.58-.754a7.867,7.867,0,0,0,.824-1.9l.9-.092a1.355,1.355,0,0,0,1.215-1.334l.016-1.372a1.352,1.352,0,0,0-1.182-1.361l-.879-.114a8.178,8.178,0,0,0-.743-1.9l.548-.673a1.353,1.353,0,0,0-.081-1.8l-.96-.982a1.353,1.353,0,0,0-1.8-.125l-.656.5a7.98,7.98,0,0,0-1.974-.857l-.087-.852a1.355,1.355,0,0,0-1.334-1.215l-1.372-.016a1.352,1.352,0,0,0-1.361,1.182l-.108.846a8.191,8.191,0,0,0-2.044.835l-.678-.553a1.352,1.352,0,0,0-1.8.081l-.987.966a1.355,1.355,0,0,0-.125,1.8l.58.749a7.943,7.943,0,0,0-.775,1.9Zm8.856-1.551a3.569,3.569,0,1,1-3.612,3.526A3.572,3.572,0,0,1,192.384,565.086Z" transform="translate(-172.335 -534.462)" fill="#fff"/></g></g></svg>