<svg xmlns="http://www.w3.org/2000/svg" width="49.789" height="70.892" viewBox="0 0 49.789 70.892"><g transform="translate(-1040.311 -191.227)"><g transform="translate(1040.311 191.227)"><g transform="translate(0 0)"><rect width="14.49" height="14.49" rx="1" transform="translate(0 0)" fill="#fff"/></g><g transform="translate(17.649 0)"><rect width="14.49" height="14.49" rx="1" transform="translate(0 0)" fill="#fff"/></g><g transform="translate(35.299 0)"><rect width="14.49" height="14.49" rx="1" transform="translate(0 0)" fill="#fff"/></g><g transform="translate(35.299 17.649)"><rect width="14.49" height="14.49" rx="1" transform="translate(0 0)" fill="#fff"/></g><g transform="translate(17.649 17.649)"><rect width="14.49" height="14.49" rx="1" transform="translate(0 0)" fill="#fff"/></g><g transform="translate(0 17.649)"><rect width="14.49" height="14.49" rx="1" transform="translate(0 0)" fill="#fff"/></g><g transform="translate(0 35.299)"><rect width="14.49" height="14.49" rx="1" transform="translate(0 0)" fill="#fff"/></g><g transform="translate(17.649 35.299)"><rect width="14.49" height="14.49" rx="1" transform="translate(0 0)" fill="#fff"/></g><g transform="translate(35.299 35.299)"><rect width="14.49" height="14.49" rx="1" transform="translate(0 0)" fill="#fff"/></g></g><text transform="translate(1046.038 259.118)" fill="#fff" font-size="15" font-family="Helvetica"><tspan x="0" y="0">Tools</tspan></text></g></svg>