<svg xmlns="http://www.w3.org/2000/svg" width="52.076" height="80.394" viewBox="0 0 52.076 80.394"><g transform="translate(-8223.556 -3279.606)"><g transform="translate(8223.556 3279.606)"><path d="M52.576,20.36a9.276,9.276,0,0,0-9.468-9.049H39.5A12.807,12.807,0,0,0,26.538,0,12.807,12.807,0,0,0,13.572,11.311h-3.6A9.266,9.266,0,0,0,.5,20.36a9.266,9.266,0,0,0,9.468,9.049H22.987V27.147H9.968a6.95,6.95,0,0,1-7.1-6.787,6.95,6.95,0,0,1,7.1-6.787h5.918V12.442A10.424,10.424,0,0,1,26.538,2.262,10.424,10.424,0,0,1,37.19,12.442v1.131h5.918a6.95,6.95,0,0,1,7.1,6.787,6.95,6.95,0,0,1-7.1,6.787H30.089v2.262H43.108A9.276,9.276,0,0,0,52.576,20.36Zm0,0" transform="translate(-0.5)" fill="#fff"/><path d="M35.2,156.113v-15.8a2.7,2.7,0,0,0-2.6-2.789H30.867v-2.03a2.8,2.8,0,0,0,1.719-2.937A2.7,2.7,0,0,0,30.3,130.1a2.592,2.592,0,0,0-2.741,1.841h-7.1v-11.7l1.989,2.131,1.227-1.314-4.084-4.375L15.5,121.063l1.227,1.314,1.989-2.131v11.7h-7.1A2.592,2.592,0,0,0,8.878,130.1a2.694,2.694,0,0,0-2.288,2.451,2.8,2.8,0,0,0,1.719,2.937v2.96H3.1a2.7,2.7,0,0,0-2.6,2.789V152.4a2.7,2.7,0,0,0,2.6,2.789H8.309v1.859h-2.6V158.9h6.941v-1.859h-2.6v-1.859h5.206a2.7,2.7,0,0,0,2.6-2.789V141.241a2.7,2.7,0,0,0-2.6-2.789H10.044v-2.96a2.7,2.7,0,0,0,1.576-1.688H27.556a2.7,2.7,0,0,0,1.576,1.688v2.031H23.926a2.7,2.7,0,0,0-2.6,2.789v15.8a2.7,2.7,0,0,0,2.6,2.789H32.6A2.7,2.7,0,0,0,35.2,156.113ZM16.117,152.4a.9.9,0,0,1-.868.93H3.1a.9.9,0,0,1-.868-.93v-1.859H16.117Zm-.868-12.084a.9.9,0,0,1,.868.93v7.436H2.235v-7.436a.9.9,0,0,1,.868-.93ZM9.176,133.8a.932.932,0,1,1,.868-.93A.9.9,0,0,1,9.176,133.8ZM30,131.945a.932.932,0,1,1-.868.93A.9.9,0,0,1,30,131.945Zm-6.941,8.366a.9.9,0,0,1,.868-.93H32.6a.9.9,0,0,1,.868.93V152.4H23.058Zm0,15.8v-1.859H33.469v1.859a.9.9,0,0,1-.868.93H23.926A.9.9,0,0,1,23.058,156.113Zm0,0" transform="translate(6.347 -98.416)" fill="#fff"/></g><text transform="translate(8240 3357)" fill="#fff" font-size="13" font-family="Helvetica"><tspan x="0" y="0">IoT</tspan></text></g></svg>