<svg xmlns="http://www.w3.org/2000/svg" width="48" height="64.882" viewBox="0 0 48 64.882"><g transform="translate(-877 -311.118)"><text transform="translate(877 373)" fill="#fff" font-size="13" font-family="Helvetica"><tspan x="0" y="0">Network</tspan></text><g transform="translate(101.253 -150.882)"><path d="M809.346,374.369a7.345,7.345,0,0,0-5.812,2.863l-11.275-6.3a7.363,7.363,0,0,0,.409-2.421,7.2,7.2,0,0,0-.417-2.429l11.267-6.29A7.33,7.33,0,1,0,802,355.338a7.172,7.172,0,0,0,.417,2.429l-11.258,6.289a7.331,7.331,0,1,0,.017,8.906l11.267,6.3a7.334,7.334,0,1,0,6.9-4.892Zm0-24.059a5.037,5.037,0,1,1-5.036,5.037,5.041,5.041,0,0,1,5.036-5.037Zm-24,23.241a5.037,5.037,0,1,1,5.037-5.037,5.041,5.041,0,0,1-5.037,5.037Zm24,13.185a5.037,5.037,0,1,1,5.037-5.037,5.041,5.041,0,0,1-5.037,5.037Zm0,0" transform="translate(2 114)" fill="#fff"/></g></g></svg>