<svg xmlns="http://www.w3.org/2000/svg" width="86" height="82" viewBox="0 0 86 82"><g transform="translate(-8431 -3681)"><path d="M57,35H50a3,3,0,0,1,0-6h5a8.024,8.024,0,0,0,7.579-10.627A7.793,7.793,0,0,0,56,13.074c0-.024,0-.049,0-.074A11.99,11.99,0,0,0,34.228,6.056,9,9,0,0,0,21.058,13c-.019,0-.038,0-.058,0a7.992,7.992,0,0,0-6.922,12H6a5.006,5.006,0,0,0-5,5V50a5.006,5.006,0,0,0,5,5h8v2H13a5.006,5.006,0,0,0-5,5v1H36V62a5.006,5.006,0,0,0-5-5H30V55h8a5.006,5.006,0,0,0,5-5h2a4,4,0,0,0,3.858-3H57a6,6,0,0,0,0-12ZM31,59a3.006,3.006,0,0,1,2.829,2H10.171A3.006,3.006,0,0,1,13,59ZM16,57V55H28v2Zm25-7a3,3,0,0,1-3,3H6a3,3,0,0,1-3-3V49H26.414l2-2H41Zm0-5H27.586l-2,2H3V30a3,3,0,0,1,3-3H38a3,3,0,0,1,3,3Zm4,3H43V44h2a2,2,0,0,1,0,4Zm12-3H48.858A4,4,0,0,0,45,42H43V30a5.006,5.006,0,0,0-5-5H16.537a6,6,0,1,1,9.439-7.354l1.657-1.12a8,8,0,0,0-4.595-3.258,7,7,0,0,1,10.93-5.031l.882.609.546-.923A10,10,0,1,1,52.383,18.454l1.675,1.093a11.908,11.908,0,0,0,1.757-4.484,5.888,5.888,0,0,1,4.86,3.925,6.113,6.113,0,0,1-.821,5.54A6.024,6.024,0,0,1,55,27H50a5,5,0,0,0,0,10h7a4,4,0,0,1,0,8Z" transform="translate(8442 3680)" fill="#fff"/><text transform="translate(8431 3760)" fill="#fff" font-size="13" font-family="Helvetica"><tspan x="0" y="0">Sys Monitoring</tspan></text></g></svg>