<svg xmlns="http://www.w3.org/2000/svg" width="88" height="76.399" viewBox="0 0 88 76.399"><g transform="translate(-858 -449.601)"><text transform="translate(858 523)" fill="#fff" font-size="13" font-family="Helvetica"><tspan x="0" y="0">LocalApp Tools</tspan></text><path d="M818.963,354.878h20.609c2.188,0,3.961-2.049,3.963-4.573V304.573c0-2.525-1.775-4.57-3.963-4.573H818.963c-2.188,0-3.961,2.049-3.963,4.573v45.732c0,2.525,1.775,4.57,3.963,4.573Zm20.609-1.829H818.963a2.581,2.581,0,0,1-2.378-2.744v-4.573H841.95v4.573a2.581,2.581,0,0,1-2.378,2.744Zm-22.987-43.9H841.95V343.9H816.585Zm2.378-7.317h20.609a2.581,2.581,0,0,1,2.378,2.744v2.744H816.585v-2.744a2.581,2.581,0,0,1,2.378-2.744Zm0,0" transform="translate(72.383 149.601)" fill="#fff"/></g></svg>