<svg xmlns="http://www.w3.org/2000/svg" width="91" height="74.399" viewBox="0 0 91 74.399"><g transform="translate(-856 -449.601)"><text transform="translate(856 521)" fill="#71757d" font-size="13" font-family="Helvetica"><tspan x="0" y="0">Local App Tools</tspan></text><g transform="translate(72.383 149.601)"><path d="M818.963,354.878h20.609c2.188,0,3.961-2.049,3.963-4.573V304.573c0-2.525-1.775-4.57-3.963-4.573H818.963c-2.188,0-3.961,2.049-3.963,4.573v45.732c0,2.525,1.775,4.57,3.963,4.573Zm20.609-1.829H818.963a2.581,2.581,0,0,1-2.378-2.744v-4.573H841.95v4.573a2.581,2.581,0,0,1-2.378,2.744Zm-22.987-43.9H841.95V343.9H816.585Zm2.378-7.317h20.609a2.581,2.581,0,0,1,2.378,2.744v2.744H816.585v-2.744a2.581,2.581,0,0,1,2.378-2.744Zm0,0" transform="translate(0 0)" fill="#71757d"/><rect width="6.341" height="0.953" rx="0.476" transform="translate(826.097 303.803)" fill="#71757d"/><path d="M937.378,708a2.378,2.378,0,1,0,2.378,2.378A2.378,2.378,0,0,0,937.378,708Zm0,3.171a.793.793,0,1,1,.793-.793.793.793,0,0,1-.793.793Zm0,0" transform="translate(-108.11 -360.255)" fill="#71757d"/></g></g></svg>